<?xml version="1.0" standalone="no"?>
<!DOCTYPE svg PUBLIC "-//W3C//DTD SVG 20010904//EN"
 "http://www.w3.org/TR/2001/REC-SVG-20010904/DTD/svg10.dtd">
<svg version="1.0" xmlns="http://www.w3.org/2000/svg"
 width="800.000000pt" height="371.000000pt" viewBox="0 0 800.000000 371.000000"
 preserveAspectRatio="xMidYMid meet">

<g transform="translate(0.000000,371.000000) scale(0.100000,-0.100000)"
fill="#000000" stroke="none">
<path d="M941 3697 c-7 -7 -24 -13 -39 -13 -75 -3 -137 -16 -154 -30 -15 -14
-17 -27 -11 -88 4 -59 3 -74 -11 -85 -9 -7 -16 -19 -16 -27 0 -7 -7 -19 -15
-27 -13 -13 -23 -12 -82 5 -37 12 -77 29 -88 38 -51 44 -87 50 -143 21 -20
-10 -50 -25 -66 -32 -16 -8 -50 -40 -75 -73 -30 -38 -62 -66 -91 -80 -37 -18
-47 -29 -63 -70 -10 -27 -31 -66 -48 -87 -17 -21 -33 -55 -36 -74 -6 -39 -9
-34 78 -123 19 -21 44 -50 54 -67 39 -63 80 -105 103 -105 14 0 36 13 53 31
l29 31 0 -33 c0 -19 -16 -65 -34 -103 -19 -38 -32 -75 -29 -83 3 -7 0 -19 -6
-26 -15 -18 -11 -146 5 -179 8 -15 14 -36 14 -46 0 -11 18 -47 40 -80 22 -33
40 -64 40 -69 0 -5 14 -22 30 -38 17 -16 30 -39 30 -52 0 -12 9 -28 20 -35 17
-11 20 -24 20 -88 0 -41 7 -115 17 -163 14 -74 15 -100 5 -165 -6 -42 -14
-105 -18 -139 -3 -34 -11 -66 -18 -72 -6 -5 -32 -11 -56 -13 -38 -3 -47 -7
-60 -33 -9 -16 -28 -42 -43 -57 -24 -24 -27 -33 -21 -63 5 -29 2 -39 -22 -65
-16 -16 -34 -30 -41 -30 -20 0 -31 -31 -44 -126 -7 -49 -18 -98 -26 -109 -18
-27 -16 -51 6 -72 11 -11 20 -38 24 -73 6 -66 47 -164 75 -179 11 -6 52 -16
91 -22 70 -12 72 -13 66 -37 -11 -43 12 -79 64 -99 42 -17 93 -18 642 -18 649
0 635 -1 665 57 8 15 14 40 14 57 0 25 5 31 38 42 117 38 178 111 197 236 4
23 13 47 21 54 18 15 18 76 0 94 -8 8 -17 38 -21 66 -6 39 -18 66 -56 116 -41
55 -49 73 -49 108 0 26 -6 47 -16 56 -8 7 -22 25 -29 40 -15 28 -59 49 -105
49 -32 0 -46 14 -55 55 -4 17 -16 58 -28 93 -21 62 -21 64 -3 130 10 37 20
114 23 172 3 73 11 118 24 147 10 24 19 46 19 50 0 4 8 16 18 27 10 12 27 41
37 66 11 25 29 58 42 73 13 16 23 38 23 51 0 12 7 32 16 44 9 13 18 38 20 55
1 18 8 46 15 63 10 24 10 47 0 105 -6 41 -11 84 -11 95 0 12 -16 51 -35 87
-38 71 -40 77 -26 77 5 0 18 -16 30 -35 30 -51 62 -48 115 12 22 26 76 82 119
124 95 94 99 124 32 199 -13 14 -25 45 -29 72 -5 35 -15 53 -37 73 -17 14 -36
25 -42 25 -7 0 -29 5 -49 10 -29 8 -39 18 -48 45 -14 43 -78 100 -128 116 -52
15 -97 0 -145 -47 -45 -45 -157 -74 -157 -41 0 7 -11 28 -25 47 -17 24 -25 47
-25 76 0 23 -6 55 -14 71 -7 15 -20 42 -28 58 -12 26 -21 31 -65 36 -28 4 -57
10 -64 14 -21 14 -315 15 -328 2z m107 -40 c7 -8 9 -29 5 -50 -5 -33 -3 -37
16 -37 24 0 25 3 12 47 -6 21 -5 35 2 42 21 21 27 11 27 -39 0 -38 4 -50 15
-50 11 0 14 11 12 47 -2 39 1 48 17 51 17 4 18 0 12 -47 l-7 -50 43 -12 c93
-25 112 -41 146 -126 l31 -78 -31 -32 c-18 -18 -35 -33 -39 -33 -4 0 -16 16
-28 35 l-21 36 36 21 c19 11 33 22 32 24 -2 2 -27 -4 -56 -12 -97 -29 -136 10
-72 71 32 31 41 29 100 -12 18 -14 22 -14 16 -3 -39 67 -94 79 -145 31 -33
-31 -38 -55 -19 -97 11 -23 10 -28 -7 -41 -20 -14 -61 -10 -79 7 -4 4 -3 24 3
43 10 29 9 41 -4 66 -32 62 -92 69 -151 15 l-39 -35 46 26 c37 20 52 24 72 16
34 -13 44 -47 20 -73 -18 -20 -54 -21 -133 -3 -14 4 -5 -5 22 -20 l47 -25 -20
-35 c-12 -19 -25 -38 -30 -41 -5 -3 -6 -24 -3 -47 5 -35 4 -40 -7 -29 -21 20
-34 14 -14 -8 10 -11 15 -26 11 -36 -11 -28 3 -51 33 -57 31 -6 48 -34 31 -51
-7 -7 -15 -4 -25 11 -8 11 -26 24 -41 27 -23 6 -26 11 -22 44 3 20 0 44 -5 54
-8 12 -6 23 6 42 23 35 22 43 -13 83 -33 38 -37 60 -15 89 8 10 15 33 15 51 0
41 30 65 116 93 59 20 65 24 59 44 -17 52 -17 76 -2 76 8 0 19 -6 25 -13z
m192 2 c0 -22 -33 -80 -44 -76 -14 5 -11 54 5 73 14 17 39 19 39 3z m-252 -42
c4 -41 -4 -46 -24 -19 -20 26 -18 64 4 60 12 -2 18 -14 20 -41z m-63 7 c25
-27 33 -54 16 -54 -5 0 -16 12 -26 26 -9 14 -19 23 -23 20 -3 -4 0 -12 6 -18
21 -21 13 -31 -12 -15 -32 22 -64 12 -62 -19 1 -30 24 -31 35 -1 8 20 10 20
16 4 5 -13 -2 -30 -24 -57 -19 -24 -31 -50 -31 -68 0 -16 -7 -45 -15 -64 -12
-31 -12 -41 2 -86 l16 -50 -29 -26 c-40 -35 -98 -34 -63 1 9 9 9 19 0 41 -14
33 -11 78 4 75 6 0 15 -16 21 -34 6 -18 16 -35 23 -37 21 -7 11 47 -16 78 -26
31 -32 67 -18 110 9 29 33 24 37 -7 l4 -28 9 29 c5 18 4 40 -2 57 -6 15 -7 33
-3 40 5 7 2 18 -6 26 -8 8 -14 18 -14 23 0 18 33 40 60 40 16 0 32 5 35 10 11
17 35 11 60 -16z m432 10 c4 -11 -4 -26 -25 -43 l-31 -26 35 -22 c25 -16 34
-18 34 -8 0 8 -4 17 -10 20 -15 9 -12 35 3 35 8 0 19 -17 25 -39 16 -51 15
-61 -5 -83 -14 -16 -14 -18 0 -18 8 0 25 -12 37 -27 18 -23 21 -36 16 -70 -3
-23 -1 -45 4 -48 14 -9 13 -145 -1 -145 -6 0 -9 -6 -6 -14 9 -22 -5 -28 -19
-8 -11 15 -12 14 -11 -13 3 -42 -15 -44 -35 -4 -21 42 -23 69 -4 69 9 0 12 7
9 20 -3 11 5 45 17 75 l22 55 -27 45 c-17 30 -25 57 -24 78 4 43 -5 55 -57 77
-24 11 -44 24 -44 29 0 17 30 40 45 35 8 -4 15 -1 15 5 0 23 -31 23 -56 1 -28
-27 -34 -8 -7 22 21 24 91 25 100 2z m-859 -214 c26 -52 29 -115 7 -124 -12
-4 -13 -10 -6 -25 8 -14 7 -20 -5 -25 -13 -5 -13 -9 1 -37 18 -35 13 -64 -10
-55 -8 3 -23 9 -32 13 -13 5 -10 -3 10 -26 29 -35 33 -52 17 -82 -15 -27 -29
-24 -27 8 2 22 -3 28 -30 35 -37 10 -44 33 -12 41 26 7 20 31 -9 35 -30 5 -27
13 11 37 27 18 32 27 31 58 -1 35 -34 87 -55 87 -5 0 3 -11 16 -25 31 -30 32
-68 3 -95 -35 -33 -50 -25 -27 14 22 38 18 44 -48 71 -44 17 -58 39 -47 70 5
13 14 15 35 11 31 -6 37 2 17 23 -11 10 -8 11 13 6 18 -4 37 0 60 14 46 29 60
24 87 -29z m1319 9 c9 -8 12 -21 8 -36 -6 -25 4 -30 24 -10 11 10 13 10 7 0
-5 -8 -1 -13 9 -13 12 0 15 -7 13 -27 -2 -23 -9 -29 -33 -31 -37 -5 -55 -19
-55 -44 0 -10 -4 -17 -9 -14 -5 3 -14 0 -20 -8 -6 -7 -25 -16 -41 -19 -22 -5
-31 -14 -36 -34 -7 -29 -23 -45 -36 -37 -15 9 -8 45 17 88 25 42 24 72 -1 38
-11 -15 -13 -14 -19 13 -11 49 -13 52 -14 14 -1 -44 -32 -79 -70 -79 -21 0
-30 -6 -34 -21 -5 -17 -9 -19 -26 -9 -12 6 -21 14 -21 18 0 12 51 48 80 57 34
10 50 24 49 44 0 10 -2 11 -6 4 -2 -7 -12 -13 -22 -13 -9 0 -32 -11 -51 -25
-41 -30 -50 -31 -50 -6 0 11 17 33 37 50 30 25 47 31 86 31 40 0 49 3 56 23 9
23 36 51 61 60 21 9 79 0 97 -14z m-1213 -40 c-7 -11 -35 -11 -53 0 -25 16 -3
31 29 19 17 -5 27 -14 24 -19z m61 3 c6 -4 16 -15 24 -25 13 -17 13 -17 -12
-6 -14 6 -28 18 -31 25 -6 15 3 18 19 6z m-21 -45 c46 -26 69 -56 57 -76 -7
-10 -15 -4 -35 28 -14 22 -31 41 -36 41 -5 0 -1 -15 10 -32 27 -44 27 -88 0
-88 -24 0 -25 -4 -4 -35 17 -27 16 -66 -3 -73 -8 -2 -13 6 -13 22 0 19 -5 26
-19 26 -35 0 -69 37 -73 80 -4 46 -2 47 20 21 10 -11 34 -23 55 -27 35 -6 39
-4 35 12 -2 13 -13 20 -38 22 -46 5 -60 18 -60 57 0 50 40 59 104 22z m366
-11 c0 -30 24 -55 53 -58 134 -9 177 -2 177 32 0 27 17 34 25 10 4 -13 0 -31
-10 -47 -15 -23 -22 -25 -69 -21 -49 5 -50 5 -21 -8 42 -18 58 -17 89 7 30 23
47 18 30 -9 -16 -24 -107 -29 -141 -7 -34 23 -40 12 -7 -14 40 -32 126 -30
160 4 31 31 44 32 44 3 0 -15 -3 -19 -8 -11 -5 9 -16 4 -36 -17 -24 -26 -35
-30 -83 -30 -51 0 -58 3 -94 38 -25 26 -42 36 -51 31 -22 -15 -33 -10 -12 5
18 14 17 15 -17 30 -20 8 -39 23 -43 31 -9 25 -7 55 4 55 6 0 10 -11 10 -24z
m206 -19 c-3 -14 -13 -28 -22 -31 -22 -9 -27 -2 -15 21 5 10 12 27 16 37 9 29
29 3 21 -27z m-916 -13 c27 -20 50 -40 50 -45 0 -12 -55 -39 -82 -39 -19 0
-20 -2 -8 -10 8 -5 27 -10 42 -10 43 0 55 -36 52 -168 l-2 -114 -37 -34 c-21
-19 -41 -34 -45 -34 -4 0 -10 -7 -14 -15 -8 -21 -46 -19 -46 2 0 22 29 53 50
53 24 0 37 18 45 61 5 29 2 41 -17 65 -56 70 -55 68 -30 60 15 -5 32 -2 47 8
29 19 34 42 8 31 -40 -16 -54 -17 -51 -4 5 22 -46 22 -90 0 l-39 -20 26 52
c18 37 33 53 49 55 29 4 25 19 -11 40 -29 18 -51 11 -71 -22 -9 -13 -7 -20 7
-30 24 -18 21 -38 -9 -67 -14 -13 -30 -34 -35 -47 -6 -17 -16 -22 -31 -20 -33
5 -33 34 0 67 29 29 45 62 56 113 5 20 19 33 60 52 29 14 56 32 60 41 7 20 9
20 66 -21z m688 -24 c24 -23 27 -30 13 -30 -23 0 -61 28 -61 46 0 22 16 17 48
-16z m997 -4 c66 -27 85 -47 85 -87 0 -16 14 -44 35 -69 35 -42 44 -73 24 -85
-6 -4 -20 2 -32 13 -12 11 -31 22 -42 26 -11 3 -26 15 -33 27 -12 19 -11 20 7
14 15 -4 20 -1 21 12 9 119 -6 136 -61 73 -21 -25 -39 -50 -39 -56 0 -6 11
-17 25 -24 18 -9 25 -22 25 -42 0 -25 4 -28 30 -28 20 0 40 -9 57 -26 31 -31
22 -46 -10 -16 -32 30 -57 29 -29 -1 30 -32 28 -46 -3 -17 l-25 24 11 -33 c6
-17 8 -35 4 -39 -7 -7 -64 57 -65 73 0 6 11 -3 25 -20 32 -39 32 -23 -1 32
l-26 45 -69 -4 -69 -3 0 46 c0 54 8 60 71 53 l44 -5 -25 21 c-16 14 -34 20
-52 18 -28 -5 -38 7 -38 43 0 10 7 19 15 19 8 0 19 9 25 20 14 26 42 25 115
-4z m-987 -46 l37 -8 -39 -1 c-38 -1 -76 20 -76 42 0 6 9 2 20 -8 11 -10 37
-21 58 -25z m-301 -12 c-2 -18 -1 -42 3 -54 5 -11 4 -27 -1 -35 -5 -9 -9 -9
-9 -2 0 6 -11 25 -25 41 l-24 29 24 11 c14 7 25 18 25 27 0 8 3 15 6 15 4 0 4
-15 1 -32z m383 -9 c-14 -26 -119 -74 -132 -61 -7 7 -1 13 13 18 24 7 24 7 -6
20 -30 13 -30 13 20 14 28 0 64 7 80 15 17 7 31 14 33 14 1 1 -2 -8 -8 -20z
m720 7 c0 -8 -16 -30 -36 -51 -27 -26 -34 -39 -26 -47 8 -8 16 -5 31 13 25 31
36 20 24 -28 -9 -38 -25 -52 -88 -74 -27 -10 -28 -12 -12 -23 22 -17 22 -26
-2 -26 -31 0 -45 26 -34 63 9 30 12 32 50 29 50 -4 63 12 26 30 -15 7 -30 25
-34 41 -7 25 -4 29 31 47 21 11 41 24 45 30 9 15 25 12 25 -4z m-180 -14 c0
-29 -28 -61 -49 -55 -12 3 -26 -3 -37 -16 -20 -22 -34 -19 -34 8 0 23 32 52
73 67 45 16 47 16 47 -4z m-281 -60 c1 -15 -7 -26 -22 -31 -13 -5 -29 -16 -36
-25 -18 -22 -31 -20 -31 4 0 10 8 24 18 29 10 5 27 26 37 45 16 30 21 33 27
19 3 -10 7 -28 7 -41z m681 13 c-7 -8 -22 -15 -33 -15 -19 0 -18 2 9 31 23 24
30 27 32 14 2 -9 -2 -22 -8 -30z m-1203 -2 l7 -28 7 25 c6 21 7 19 8 -13 2
-73 -31 -97 -76 -55 -29 28 -32 78 -4 78 11 0 23 5 26 10 11 18 24 11 32 -17z
m664 -50 c-6 -21 -7 -41 -2 -46 10 -10 -3 -65 -19 -81 -5 -5 -10 -26 -10 -45
l1 -36 14 39 c18 50 33 66 45 46 11 -19 3 -55 -22 -97 -26 -44 -13 -64 18 -27
l23 29 1 -25 c0 -14 -7 -36 -16 -48 -11 -15 -14 -32 -9 -50 l7 -27 14 28 c8
15 19 27 24 27 14 0 13 -5 -10 -50 -22 -43 -40 -52 -40 -20 0 11 -9 37 -20 57
-11 21 -20 43 -20 50 0 7 -7 33 -16 59 -17 51 -12 156 8 151 6 -1 13 4 16 12
3 9 0 11 -8 6 -8 -5 -11 -2 -7 11 3 11 11 39 18 64 7 25 14 38 16 28 2 -9 0
-34 -6 -55z m-871 -2 c42 -37 44 -41 28 -57 -15 -15 -18 -15 -31 -2 -9 8 -29
21 -46 28 -26 10 -31 18 -31 45 0 55 3 55 80 -14z m540 22 c0 -6 -9 -15 -20
-18 -11 -3 -20 -11 -20 -16 0 -12 17 -12 25 1 3 5 16 15 28 22 21 11 21 10 6
-13 -9 -13 -31 -27 -49 -32 -28 -7 -37 -5 -58 16 -28 29 -24 53 10 66 26 9 78
-8 78 -26z m-41 -73 c45 0 50 3 76 40 32 46 40 49 49 18 12 -47 6 -76 -20 -97
-31 -25 -56 -28 -48 -6 4 10 0 15 -14 15 -11 0 -22 -7 -26 -15 -7 -19 -33 -19
-43 0 -5 9 -17 12 -31 9 -12 -4 -19 -10 -16 -15 10 -18 -26 -9 -46 11 -22 22
-25 55 -10 96 l11 27 35 -42 c33 -37 40 -41 83 -41z m522 70 c10 -6 19 -17 19
-24 0 -15 -42 -36 -74 -36 -25 0 -51 -22 -39 -33 3 -4 2 -7 -3 -7 -5 0 -14 9
-21 19 -10 16 -7 23 18 45 24 22 58 41 77 45 2 1 12 -4 23 -9z m-932 -47 c13
-46 7 -53 -18 -22 -21 25 -26 41 -14 52 13 14 22 6 32 -30z m-499 18 c0 -9
-45 -56 -89 -93 -23 -20 -26 -16 -11 13 12 21 1 26 -18 7 -8 -8 -12 -8 -12 -1
0 14 24 34 74 59 48 25 56 27 56 15z m230 -46 c0 -7 11 -22 25 -35 33 -31 35
-84 3 -101 l-23 -12 23 -10 c27 -12 32 -71 6 -81 -35 -14 -43 -8 -31 24 10 27
8 33 -21 63 -35 36 -44 81 -14 75 9 -2 21 -13 27 -26 12 -26 21 -28 29 -5 5
11 -5 28 -27 52 -31 32 -57 71 -57 84 0 3 14 0 30 -6 17 -6 30 -16 30 -22z
m124 -2 c17 -14 46 -32 64 -40 24 -10 32 -20 32 -38 0 -14 -2 -25 -4 -25 -2 0
-11 -3 -20 -6 -11 -4 -19 2 -25 19 -6 16 -20 27 -40 32 -17 4 -35 14 -41 23
-9 16 -9 15 -10 -1 0 -32 18 -54 58 -70 50 -20 69 -43 55 -65 -15 -25 -43 -27
-43 -3 0 12 -9 22 -22 27 -38 11 -56 33 -62 78 -6 40 5 96 20 96 3 0 20 -12
38 -27z m844 15 c25 -25 13 -66 -31 -113 -45 -46 -61 -56 -51 -30 3 8 -1 24
-10 37 -22 30 -22 59 0 32 15 -18 15 -18 8 5 -4 16 -3 21 5 17 6 -4 11 0 11
10 0 25 11 10 21 -28 8 -32 8 -31 6 10 -2 30 1 42 11 42 12 0 12 3 2 15 -10
12 -10 15 2 15 8 0 19 -5 26 -12z m494 -40 c-9 -24 -26 -51 -37 -60 -27 -22
-11 -50 37 -62 27 -7 38 -16 48 -44 10 -28 10 -36 -1 -43 -22 -14 -29 -11 -49
24 -11 19 -31 39 -45 45 -22 10 -25 18 -25 61 0 27 -3 56 -6 65 -4 11 0 16 14
16 11 0 30 9 43 20 35 29 39 25 21 -22z m-1626 -14 c22 -38 25 -48 13 -55 -8
-5 -18 -9 -22 -9 -4 0 -25 -11 -45 -25 -45 -31 -54 -31 -68 -1 -9 20 -9 23 3
19 13 -5 13 -2 5 14 -6 11 -9 23 -5 26 10 11 23 -3 24 -26 0 -13 3 -16 6 -8 4
10 7 10 13 1 6 -9 15 -8 38 4 42 22 47 34 25 59 -28 31 -36 47 -24 47 6 0 22
-21 37 -46z m517 29 c18 -17 19 -17 32 0 19 26 35 20 35 -13 0 -30 14 -40 24
-17 5 9 7 9 12 0 3 -7 12 -9 20 -6 23 9 16 -15 -11 -33 -13 -9 -27 -24 -30
-35 -10 -30 -31 -22 -48 19 -9 20 -28 52 -43 70 -28 34 -23 43 9 15z m1133
-42 c-26 -50 -25 -71 2 -48 12 9 16 9 19 -1 3 -6 9 -10 14 -6 5 3 9 0 9 -7 0
-10 3 -10 12 -1 20 20 32 13 13 -8 -21 -23 -13 -39 10 -20 26 21 27 5 1 -19
l-24 -23 -17 26 c-10 14 -25 26 -34 26 -10 0 -25 6 -35 13 -17 12 -16 16 15
65 17 29 34 52 36 52 2 0 -8 -22 -21 -49z m-1736 24 c-7 -8 -18 -15 -24 -15
-6 0 -2 7 8 15 25 19 32 19 16 0z m1440 6 c0 -5 3 -16 6 -25 4 -10 -5 -20 -25
-31 -17 -8 -31 -22 -31 -30 0 -8 -7 -15 -15 -15 -22 0 -19 52 6 84 19 25 59
36 59 17z m-919 -50 c0 -12 3 -11 10 4 6 14 8 0 5 -46 -6 -87 -56 -189 -56
-115 0 14 -5 37 -10 52 -13 34 -5 42 20 19 19 -17 20 -17 20 -1 0 10 -4 25 -9
34 -5 9 -12 37 -16 62 l-7 45 21 -19 c11 -11 21 -26 22 -35z m1099 35 c0 -35
-22 -67 -61 -86 -36 -19 -40 -25 -34 -47 7 -31 -14 -27 -26 5 -7 17 2 33 44
82 51 59 77 74 77 46z m-1668 -18 c-7 -7 -12 -8 -12 -2 0 14 12 26 19 19 2 -3
-1 -11 -7 -17z m78 17 c0 -2 -10 -10 -22 -16 -21 -11 -22 -11 -9 4 13 16 31
23 31 12z m35 -25 c3 -5 1 -10 -4 -10 -6 0 -11 5 -11 10 0 6 2 10 4 10 3 0 8
-4 11 -10z m1730 0 c3 -5 2 -10 -4 -10 -5 0 -13 5 -16 10 -3 6 -2 10 4 10 5 0
13 -4 16 -10z m-691 -80 c-6 -34 -35 -70 -58 -70 -6 0 -12 17 -12 40 -1 33 1
38 12 29 11 -9 14 -8 14 4 0 10 6 14 15 11 11 -5 15 1 15 22 0 23 2 26 10 14
5 -8 7 -31 4 -50z m-351 27 c4 3 7 1 7 -6 0 -7 7 -11 15 -8 8 4 17 1 21 -5 4
-7 10 -6 16 3 7 10 8 8 3 -6 -5 -11 -10 -32 -13 -47 -2 -16 -9 -28 -15 -28
-16 0 -47 31 -47 47 0 7 -7 16 -15 19 -16 6 -20 35 -8 48 4 4 13 0 19 -8 6 -9
14 -13 17 -9z m717 -2 c0 -8 -13 -24 -30 -37 -16 -12 -30 -30 -30 -41 0 -22
-24 -18 -28 6 -5 23 46 87 69 87 11 0 19 -7 19 -15z m-1370 0 c0 -3 -10 -10
-22 -15 -13 -5 -34 -18 -48 -27 l-25 -17 20 23 c24 28 75 52 75 36z m890 -25
c0 21 20 9 26 -15 9 -35 -11 -55 -53 -55 -30 0 -34 2 -23 15 8 9 10 27 6 46
l-6 31 25 -16 c14 -9 25 -12 25 -6z m-130 1 c0 12 2 12 9 0 5 -7 14 -11 20 -7
7 5 9 1 5 -9 -4 -8 -1 -22 6 -29 9 -12 7 -17 -10 -26 -29 -16 -60 12 -60 53 0
25 2 28 15 17 12 -10 15 -10 15 1z m-512 -18 c58 -36 79 -87 47 -113 -8 -7
-25 -10 -36 -7 -20 5 -19 3 6 -23 34 -35 29 -62 -13 -76 -33 -10 -33 -10 -12
-29 27 -25 25 -53 -5 -67 -26 -12 -31 -23 -15 -33 18 -11 11 -54 -11 -65 -19
-11 -19 -13 -5 -29 20 -22 20 -45 0 -62 -14 -11 -16 -10 -12 11 2 18 -5 29
-29 45 -35 22 -51 51 -36 66 6 6 15 4 23 -6 16 -20 40 -19 40 1 0 9 -9 27 -20
41 -30 38 -26 55 12 51 43 -4 45 13 6 51 -29 28 -31 33 -16 47 13 13 19 14 36
3 33 -21 38 -2 9 29 -15 16 -27 36 -27 45 0 22 33 40 48 25 5 -5 16 -7 22 -3
8 5 2 16 -19 36 -19 17 -31 38 -31 53 0 31 2 31 38 9z m272 -21 c0 -25 -35
-58 -45 -42 -8 12 20 60 35 60 6 0 10 -8 10 -18z m980 3 c0 -8 -6 -24 -12 -35
-10 -16 -10 -24 0 -40 10 -17 10 -20 -3 -20 -19 0 -37 43 -28 67 14 40 43 58
43 28z m-1382 -17 c9 -9 9 -15 0 -26 -9 -11 -5 -20 20 -43 18 -17 32 -33 32
-37 0 -18 -33 -52 -50 -52 -17 0 -17 -2 5 -25 14 -13 25 -28 25 -33 0 -18 -30
-34 -55 -30 -32 6 -31 1 1 -33 l26 -28 -26 -24 c-16 -15 -24 -31 -20 -40 3 -9
-3 -21 -16 -30 -21 -14 -21 -17 -6 -38 11 -17 13 -26 4 -36 -14 -18 -29 -17
-22 2 4 8 0 25 -8 38 -8 12 -18 31 -22 41 -7 19 -6 19 12 3 16 -15 21 -15 31
-3 9 11 6 20 -14 44 -25 30 -33 62 -16 62 5 0 13 -9 16 -20 7 -21 30 -27 40
-10 4 6 -8 35 -26 66 -35 62 -29 91 11 49 45 -48 56 -19 15 41 -29 42 -20 70
13 41 46 -42 57 -5 12 38 -34 32 -34 33 -20 69 10 29 20 32 38 14z m1017 -9
c8 -23 1 -34 -14 -24 -13 8 -15 45 -2 45 5 0 13 -9 16 -21z m251 0 c3 -6 -6
-22 -22 -34 -37 -30 -29 -37 24 -23 24 6 46 8 49 4 4 -4 -9 -22 -30 -41 -20
-19 -37 -43 -37 -54 0 -28 6 -26 42 9 51 51 79 36 33 -18 -14 -17 -25 -37 -25
-45 0 -25 23 -33 34 -12 16 27 45 55 56 55 6 0 13 -7 16 -15 7 -18 -62 -99
-71 -85 -4 6 -15 10 -25 10 -10 0 -22 9 -25 20 -4 11 -18 34 -33 52 -28 33
-50 82 -59 132 -4 21 -1 33 13 43 22 16 50 17 60 2z m-1005 -104 c-10 -20 -15
-41 -31 -127 -10 -56 -27 -91 -41 -83 -5 4 -5 14 2 26 8 16 7 26 -5 44 -19 29
-20 35 -3 35 33 1 38 16 17 53 -20 34 -20 57 1 57 5 0 9 -7 9 -15 0 -8 5 -15
11 -15 6 0 8 15 4 44 -4 24 -4 54 0 66 6 20 9 18 27 -21 14 -32 16 -49 9 -64z
m213 61 c-6 -14 -52 -46 -69 -46 -16 0 0 32 27 54 34 26 54 22 42 -8z m470 25
c9 -14 -4 -41 -20 -41 -8 0 -14 10 -14 25 0 25 23 35 34 16z m-614 -25 c0 -8
-4 -18 -10 -21 -5 -3 -10 3 -10 14 0 12 5 21 10 21 6 0 10 -6 10 -14z m255 -6
c8 -12 -81 -108 -90 -98 -11 11 2 52 26 81 21 27 53 35 64 17z m93 -23 c3 -15
-22 -45 -73 -86 -9 -7 -14 -19 -11 -27 7 -18 -8 -18 -23 0 -9 11 -7 25 11 62
31 64 88 94 96 51z m91 11 c6 -7 24 -30 41 -50 32 -38 37 -77 11 -86 -9 -3
-11 1 -7 16 5 15 -1 25 -29 42 -35 22 -70 72 -58 84 10 10 32 7 42 -6z m121
-24 c27 -20 50 -42 50 -49 0 -25 -21 -27 -44 -3 -13 12 -36 33 -50 45 -15 13
-25 27 -21 33 9 14 9 14 65 -26z m148 16 c20 -19 21 -50 2 -50 -13 0 -50 51
-44 61 8 14 18 11 42 -11z m368 -7 c-10 -10 -19 5 -10 18 6 11 8 11 12 0 2 -7
1 -15 -2 -18z m-412 -19 c19 -19 20 -26 4 -42 -18 -18 -44 -16 -29 2 9 10 8
16 -4 26 -8 7 -15 16 -15 21 0 15 27 10 44 -7z m429 -24 c3 -11 2 -20 -3 -20
-14 0 -32 29 -25 40 9 14 21 5 28 -20z m-1053 10 c0 -12 -49 -45 -56 -37 -3 3
-1 15 6 26 11 21 50 30 50 11z m-70 -14 c0 -8 -4 -18 -10 -21 -5 -3 -10 3 -10
14 0 12 5 21 10 21 6 0 10 -6 10 -14z m890 -9 c0 -7 -9 -23 -20 -37 -16 -21
-20 -23 -25 -8 -7 19 23 71 36 62 5 -3 9 -11 9 -17z m-356 -131 c-4 -9 -14
-21 -24 -26 -14 -8 -19 -5 -23 18 -4 19 -18 35 -45 50 -57 32 -71 51 -49 67 9
7 17 18 17 26 0 8 29 -16 65 -53 45 -45 63 -71 59 -82z m-377 119 c7 -20 -68
-88 -79 -72 -12 20 33 87 59 87 7 0 16 -7 20 -15z m618 -15 c4 -12 1 -27 -5
-35 -16 -19 -31 -19 -24 -1 3 8 1 17 -5 21 -18 11 -12 35 8 35 11 0 23 -9 26
-20z m-153 -27 c40 -39 48 -67 22 -77 -25 -10 -34 -7 -28 8 3 7 -6 23 -20 34
-16 12 -26 30 -26 46 0 34 7 33 52 -11z m-252 12 c17 -20 5 -47 -33 -71 -25
-15 -32 -26 -30 -48 3 -37 -28 -32 -41 7 -9 25 -7 31 22 53 18 14 32 31 32 38
0 13 20 36 31 36 4 0 12 -7 19 -15z m334 -8 c13 -9 16 -20 11 -39 l-7 -27 -25
29 c-33 40 -19 66 21 37z m-470 -6 c3 -5 -3 -20 -14 -34 -11 -14 -20 -33 -20
-42 0 -14 -3 -15 -15 -5 -17 14 -19 43 -5 71 11 19 44 26 54 10z m672 -18
c-16 -64 -17 -81 -7 -87 6 -4 19 6 29 23 32 58 47 20 16 -43 -8 -16 -14 -38
-14 -48 0 -28 -17 -13 -23 22 -4 17 -16 43 -28 59 -19 26 -20 30 -5 64 18 44
42 51 32 10z m-878 -45 l-13 -23 -3 22 c-2 12 3 32 10 45 l13 23 3 -22 c2 -12
-3 -32 -10 -45z m814 12 c-3 -21 -8 -28 -15 -21 -11 11 -1 64 12 57 4 -3 6
-19 3 -36z m302 -3 c-4 -12 -15 -34 -25 -48 -25 -36 -11 -45 22 -13 18 17 29
22 34 14 6 -10 -2 -25 -39 -75 -7 -10 -17 -4 -38 22 -15 20 -28 39 -28 42 0 4
14 26 31 49 31 43 55 48 43 9z m-531 -43 c29 -34 33 -64 10 -72 -7 -2 -13 3
-13 10 0 8 -11 24 -25 36 -19 16 -25 31 -24 59 0 34 2 36 12 19 7 -11 25 -34
40 -52z m177 27 c0 -28 -19 -36 -35 -15 -16 22 -11 34 16 34 12 0 19 -7 19
-19z m-813 -28 c-3 -10 -5 -4 -5 12 0 17 2 24 5 18 2 -7 2 -21 0 -30z m504 -9
c63 -54 68 -63 43 -81 -27 -20 -34 -16 -34 17 0 26 -5 31 -31 37 -32 6 -65 45
-54 63 10 16 18 13 76 -36z m-341 13 c0 -18 -46 -78 -53 -70 -13 13 -7 43 13
63 23 23 40 26 40 7z m590 -37 c0 -30 -12 -29 -38 1 -20 25 -23 32 -11 39 17
11 49 -16 49 -40z m-340 23 c0 -20 38 -63 57 -63 7 0 13 -5 13 -11 0 -5 17
-25 37 -44 32 -29 35 -36 23 -50 -12 -14 -14 -13 -24 7 -6 13 -27 31 -46 40
-19 10 -45 36 -59 59 l-24 41 -13 -29 c-8 -15 -18 -35 -23 -43 -5 -8 -12 -23
-15 -32 -3 -10 -10 -18 -16 -18 -28 0 -23 65 6 95 9 8 17 22 18 31 5 32 66 48
66 17z m462 -25 c-17 -17 -15 -33 3 -18 22 18 35 3 35 -44 0 -30 -6 -48 -20
-61 -11 -10 -20 -28 -21 -39 0 -20 -1 -20 -11 2 -9 18 -7 33 9 73 22 50 20 63
-3 32 -11 -15 -13 -16 -17 -3 -2 8 -9 29 -14 47 -10 29 -9 32 11 35 28 5 44
-8 28 -24z m172 17 c7 -19 -2 -44 -25 -70 -9 -11 -19 -30 -21 -42 -3 -23 -3
-23 -15 2 -9 21 -7 33 14 75 26 52 37 60 47 35z m-974 -8 c0 -17 -29 -57 -41
-57 -11 0 -3 38 13 58 13 16 28 16 28 -1z m194 -2 c8 -21 -3 -44 -25 -56 -11
-5 -19 -19 -19 -29 0 -26 -16 -26 -30 0 -8 14 -7 26 1 43 27 53 61 72 73 42z
m-354 -58 c0 -20 -35 -36 -62 -29 -28 7 -21 21 10 19 28 -2 30 3 17 53 l-7 25
21 -25 c11 -14 21 -33 21 -43z m737 -19 c26 -26 26 -27 9 -52 -20 -32 -36 -33
-36 -4 0 12 -8 31 -19 42 -10 12 -21 39 -25 61 l-7 40 26 -30 c14 -16 37 -42
52 -57z m163 53 c13 -26 13 -91 -1 -91 -6 0 -8 9 -4 20 4 11 0 29 -9 42 -9 12
-16 28 -16 35 0 20 18 16 30 -6z m-870 -1 c0 -5 -4 -10 -10 -10 -5 0 -10 5
-10 10 0 6 5 10 10 10 6 0 10 -4 10 -10z m60 -5 c0 -8 -4 -15 -9 -15 -13 0
-22 16 -14 24 11 11 23 6 23 -9z m724 -49 c10 -19 15 -39 12 -45 -10 -16 -59
46 -52 64 9 23 20 18 40 -19z m347 -57 l-20 -44 0 40 c-1 46 32 107 37 69 2
-11 -6 -40 -17 -65z m-931 1 c-9 -16 -8 -22 5 -26 25 -10 12 -84 -15 -84 -14
0 -12 34 2 48 9 9 8 16 -5 30 -17 19 -14 54 7 81 9 12 12 11 14 -7 2 -11 -2
-30 -8 -42z m-65 21 c-18 -35 -31 -45 -40 -31 -9 15 22 60 40 60 14 0 14 -3 0
-29z m-127 -4 c2 -10 -3 -17 -13 -17 -8 0 -20 -12 -26 -27 -11 -28 -11 -28
-20 -5 -5 12 -15 25 -24 28 -25 10 -17 24 14 24 17 0 33 5 36 11 9 14 29 6 33
-14z m842 -8 c0 -10 -4 -19 -10 -19 -5 0 -10 12 -10 26 0 14 4 23 10 19 6 -3
10 -15 10 -26z m-1060 -1 c5 -13 19 -34 30 -48 24 -29 18 -60 -10 -60 -13 0
-20 -9 -22 -27 -2 -14 -9 -28 -16 -31 -11 -3 -12 0 -3 15 8 17 6 25 -14 43
-34 32 -31 45 5 23 45 -26 58 -6 26 42 -14 21 -26 44 -26 51 0 22 20 16 30 -8z
m270 18 c0 -15 -14 -35 -21 -30 -15 9 -10 34 6 34 8 0 15 -2 15 -4z m270 -31
c0 -17 -9 -29 -30 -40 -35 -18 -40 -19 -40 -3 0 18 50 79 61 73 5 -4 9 -17 9
-30z m218 -34 c2 -11 0 -21 -5 -21 -19 0 -52 32 -61 60 l-11 30 37 -24 c20
-13 38 -33 40 -45z m128 19 c20 -31 28 -53 23 -62 -7 -10 -9 -9 -9 4 0 9 -13
25 -30 35 -22 13 -30 25 -30 45 0 39 10 34 46 -22z m534 28 c0 -12 -10 -32
-21 -45 -18 -18 -20 -25 -9 -38 10 -12 10 -15 -4 -15 -28 0 -31 31 -6 77 25
47 40 55 40 21z m-755 -8 c0 -18 -58 -90 -70 -86 -19 5 -10 36 20 71 30 34 50
41 50 15z m565 -7 c0 -9 -7 -25 -16 -34 -9 -10 -16 -31 -16 -46 0 -25 -1 -26
-14 -8 -18 25 -18 55 2 83 18 26 44 29 44 5z m-1014 -37 c3 -8 4 -24 2 -36 -2
-17 -5 -14 -14 14 -10 34 0 53 12 22z m147 -27 c-6 -23 -19 -32 -33 -24 -6 4
-4 18 6 37 11 22 18 27 24 18 4 -7 5 -21 3 -31z m626 32 c8 -5 11 -16 8 -25
-6 -15 -8 -15 -27 1 -11 10 -20 21 -20 25 0 11 22 10 39 -1z m121 -63 c-14
-44 -36 -78 -52 -78 -14 0 -9 37 7 50 8 7 15 24 15 39 0 32 19 56 34 41 6 -6
5 -25 -4 -52z m-986 26 c14 -15 26 -32 26 -39 0 -15 -50 -95 -59 -95 -8 0 -31
73 -26 79 3 2 11 -2 20 -9 17 -14 45 -7 45 13 0 7 -11 24 -25 37 -14 13 -25
27 -25 32 0 15 17 8 44 -18z m929 13 c3 -8 2 -19 -3 -26 -5 -10 -9 -8 -14 4
-3 9 -6 21 -6 26 0 14 17 11 23 -4z m202 -47 c-9 -17 -13 -40 -10 -50 8 -24
-10 -27 -19 -4 -11 29 -6 56 17 83 27 34 35 15 12 -29z m-955 13 c0 -24 -25
-9 -28 17 -3 21 -2 22 12 11 9 -7 16 -20 16 -28z m240 21 c0 -9 -11 -29 -25
-46 -14 -16 -25 -37 -25 -46 -1 -15 -2 -15 -11 0 -7 14 -4 29 16 63 28 46 45
57 45 29z m194 -16 c26 -23 36 -38 31 -50 -8 -20 -35 -13 -35 10 0 8 -7 24
-16 33 -16 18 -18 18 -44 -1 -16 -11 -30 -33 -34 -52 -6 -30 -7 -31 -23 -15
-16 15 -16 18 0 35 9 10 17 24 17 30 0 10 45 40 61 42 3 0 23 -15 43 -32z
m133 -9 c3 -16 10 -32 14 -35 12 -7 11 -54 -1 -54 -16 0 -37 43 -43 87 -4 33
-2 40 10 36 8 -3 17 -19 20 -34z m-53 5 c4 -10 1 -14 -6 -12 -15 5 -23 28 -10
28 5 0 13 -7 16 -16z m338 -36 c-7 -7 -12 -25 -12 -41 0 -16 -4 -26 -10 -22
-13 8 -13 38 2 70 8 17 15 22 22 15 7 -7 6 -14 -2 -22z m-943 8 c15 -18 -3
-66 -25 -66 -11 0 -14 5 -10 16 3 9 6 27 6 40 0 27 12 31 29 10z m761 -15 c0
-17 -4 -33 -10 -36 -5 -3 -10 3 -10 14 0 10 -3 26 -6 35 -4 11 -1 16 10 16 11
0 16 -9 16 -29z m341 -17 c-16 -21 -18 -30 -10 -46 9 -16 8 -19 -3 -16 -23 8
-22 58 4 85 29 31 37 12 9 -23z m-949 -10 c-2 -13 -8 -24 -13 -24 -10 0 -11
16 -2 48 8 31 22 9 15 -24z m64 1 c-6 -19 -14 -35 -18 -35 -13 0 -9 45 4 58
21 21 25 13 14 -23z m134 9 c0 -9 -9 -27 -20 -41 -11 -14 -20 -35 -20 -46 0
-16 -3 -17 -15 -7 -21 17 -19 30 10 73 27 39 45 48 45 21z m470 12 c0 -2 -3
-11 -6 -20 -9 -23 -24 -20 -24 4 0 11 7 20 15 20 8 0 15 -2 15 -4z m-762 -32
c2 -10 7 -28 12 -39 5 -11 14 -76 19 -145 6 -69 15 -139 20 -157 12 -40 0
-141 -21 -173 -9 -14 -19 -40 -23 -58 -5 -25 -10 -31 -18 -23 -12 12 -37 -47
-37 -91 0 -31 -43 -123 -73 -155 -22 -25 -17 -29 13 -13 16 9 18 8 14 -5 -4
-8 -18 -18 -33 -22 -14 -3 -42 -14 -61 -24 -26 -14 -36 -16 -42 -6 -4 6 -13
12 -20 12 -22 0 -14 29 9 35 17 4 20 9 13 20 -20 31 -12 43 25 37 50 -8 83 23
90 83 4 41 4 42 -5 13 -17 -53 -33 -52 -24 2 4 31 3 46 -3 42 -6 -4 -13 -24
-17 -46 -3 -22 -11 -43 -18 -47 -11 -7 -10 12 8 95 6 27 4 32 -6 26 -17 -10
-6 63 22 154 19 59 20 82 14 224 -4 94 -3 157 3 157 16 0 98 84 106 108 8 27
29 24 33 -4z m39 -6 c-3 -7 -5 -2 -5 12 0 14 2 19 5 13 2 -7 2 -19 0 -25z
m359 -15 c-8 -16 -22 -35 -30 -42 -9 -8 -16 -20 -16 -27 0 -19 -16 -18 -24 1
-9 24 3 42 40 64 19 11 34 26 34 32 0 7 3 10 6 7 3 -4 -1 -19 -10 -35z m144
-3 c0 -29 -29 -33 -36 -5 -8 32 3 50 22 34 8 -6 14 -19 14 -29z m-64 -30 c3
-52 -31 -29 -43 30 l-6 33 24 -16 c15 -11 24 -28 25 -47z m445 22 c-20 -38
-14 -45 35 -39 39 4 44 3 38 -12 -4 -9 -7 -29 -6 -44 1 -24 -1 -27 -13 -17 -7
6 -15 21 -17 33 -2 13 -13 23 -28 27 -28 7 -39 42 -19 66 16 20 23 10 10 -14z
m-1143 -35 c-2 -12 -12 -23 -23 -26 -16 -3 -17 -1 -6 12 7 9 12 24 11 34 -4
31 0 39 11 20 6 -10 9 -28 7 -40z m1060 34 c3 -8 -1 -12 -9 -9 -7 2 -15 10
-17 17 -3 8 1 12 9 9 7 -2 15 -10 17 -17z m-964 -23 c-3 -4 -12 -8 -20 -8 -12
0 -12 4 -2 20 8 13 15 16 19 8 4 -7 5 -16 3 -20z m991 -77 l40 -44 6 -266 c3
-146 10 -279 16 -296 5 -16 25 -40 44 -53 19 -13 39 -36 44 -52 6 -16 20 -37
33 -45 22 -16 30 -45 12 -45 -5 0 -10 7 -10 16 0 11 -6 15 -19 11 -15 -4 -20
2 -25 29 -9 47 -26 53 -26 9 0 -48 -26 -58 -54 -22 -33 42 -72 127 -86 187 -7
30 -22 75 -35 100 -54 110 -57 131 -41 311 8 90 12 185 9 209 l-6 45 29 -25
c16 -14 47 -45 69 -69z m-171 20 c11 -62 -4 -168 -35 -258 -24 -72 -24 -109 2
-202 16 -56 20 -90 15 -133 -5 -54 -4 -59 19 -74 19 -12 25 -25 25 -51 0 -19
5 -43 10 -54 6 -10 7 -19 2 -19 -14 0 -32 23 -32 40 0 27 -30 79 -48 84 -24 8
-54 127 -59 234 -3 45 -8 82 -12 82 -8 0 -38 -167 -44 -240 l-3 -35 -8 39 c-7
29 -3 74 14 165 17 91 24 168 25 275 1 137 3 150 21 156 10 4 28 17 38 29 11
12 29 21 40 19 17 -2 23 -14 30 -57z m176 44 c0 -8 -4 -15 -10 -15 -5 0 -10 7
-10 15 0 8 5 15 10 15 6 0 10 -7 10 -15z m-280 -5 c0 -5 -2 -10 -4 -10 -3 0
-8 5 -11 10 -3 6 -1 10 4 10 6 0 11 -4 11 -10z m-510 -32 c0 -69 -13 -169 -20
-157 -16 29 -22 119 -10 154 14 44 30 45 30 3z m131 -14 c23 -25 24 -31 24
-182 0 -142 2 -162 23 -206 26 -58 27 -63 5 -45 -15 12 -16 12 -9 -6 4 -11 10
-49 13 -85 6 -67 -3 -74 -24 -17 l-11 32 -1 -42 c-1 -53 -16 -56 -29 -5 l-10
37 -1 -39 c-1 -21 -10 -53 -20 -70 -17 -28 -27 -57 -45 -138 -4 -16 -10 -28
-16 -28 -5 0 -10 12 -12 28 -2 16 -9 27 -18 27 -10 0 -14 -8 -12 -27 3 -30
-12 -38 -22 -12 -4 9 1 28 10 41 l16 25 24 -23 24 -22 0 31 c0 22 -5 32 -16
32 -24 0 -12 34 13 38 12 2 24 11 28 20 13 34 22 102 14 102 -5 0 -9 -12 -9
-26 0 -14 -5 -34 -10 -45 -12 -22 -40 -26 -40 -5 0 20 17 29 23 14 3 -7 6 59
6 147 1 115 -5 201 -21 309 l-22 149 22 18 c28 22 67 11 103 -27z m214 14
c-15 -48 -43 -51 -31 -3 4 14 13 25 22 25 11 0 14 -6 9 -22z m81 -5 c-10 -10
-19 5 -10 18 6 11 8 11 12 0 2 -7 1 -15 -2 -18z m234 -85 c-1 -126 -15 -230
-40 -281 l-20 -42 4 80 c2 44 9 107 15 140 6 33 14 90 17 128 8 98 24 82 24
-25z m-910 -60 c0 -59 -4 -108 -9 -108 -10 0 -31 131 -31 194 0 50 9 64 27 40
9 -12 13 -54 13 -126z m488 130 c15 -20 -1 -306 -20 -342 l-15 -29 -6 49 c-15
117 -20 290 -8 312 13 25 33 28 49 10z m152 -17 c0 -6 -4 -13 -10 -16 -5 -3
-10 1 -10 9 0 9 5 16 10 16 6 0 10 -4 10 -9z m69 -68 c8 -49 9 -89 2 -143 -6
-41 -11 -78 -11 -82 0 -5 -4 -8 -9 -8 -13 0 -30 88 -38 192 -5 72 -3 92 8 99
28 18 36 8 48 -58z m431 -100 c0 -63 -5 -145 -11 -184 -10 -59 -9 -79 6 -137
10 -37 24 -79 32 -94 7 -16 10 -28 6 -28 -5 0 -16 12 -25 28 -22 34 -24 8 -3
-33 l15 -30 -24 27 c-34 38 -50 124 -42 228 4 47 9 147 13 223 5 114 8 135 19
126 10 -8 14 -42 14 -126z m-500 -20 c0 -65 7 -149 15 -188 19 -91 19 -156 -2
-221 -14 -46 -15 -59 -3 -93 20 -61 11 -71 -64 -71 l-65 0 -5 43 c-22 165 -25
255 -11 312 9 36 14 114 15 198 l0 137 60 0 60 0 0 -117z m-366 -325 c11 -25
-28 -85 -59 -90 -29 -6 -28 -8 -14 29 14 35 34 129 45 208 l9 60 6 -95 c3 -52
9 -103 13 -112z m648 66 c4 -21 7 -67 7 -101 1 -55 -1 -63 -18 -63 -10 0 -22
7 -25 16 -8 21 -8 158 0 179 10 26 28 11 36 -31z m-163 -141 c0 -51 5 -93 10
-93 5 0 16 10 24 23 16 22 16 22 16 -10 1 -26 5 -33 21 -33 15 0 20 -7 20 -29
0 -17 -4 -33 -10 -36 -6 -4 -7 6 -3 26 5 27 3 31 -13 27 -14 -3 -18 -11 -16
-31 4 -37 -5 -34 -24 11 l-17 37 -7 -30 c-4 -16 -8 -22 -9 -12 0 9 -8 17 -17
17 -11 0 -15 -6 -11 -20 3 -11 1 -22 -4 -26 -5 -3 -8 22 -7 55 1 57 10 77 21
49 2 -7 3 25 0 72 -2 47 -1 101 3 120 l7 35 7 -30 c4 -16 8 -72 9 -122z m-578
101 c-5 -16 -10 -21 -10 -12 -1 18 10 51 15 45 2 -1 -1 -16 -5 -33z m298 -84
c-1 -61 -2 -63 -10 -25 -12 58 -11 124 1 105 5 -8 9 -44 9 -80z m501 26 c4
-21 4 -36 -1 -36 -5 0 -9 8 -9 18 0 9 -3 28 -7 42 -3 14 -3 22 1 18 4 -3 11
-23 16 -42z m-1003 -3 c-3 -10 -5 -4 -5 12 0 17 2 24 5 18 2 -7 2 -21 0 -30z
m443 -66 c0 -12 3 -32 6 -45 5 -18 9 -20 20 -11 11 9 14 8 14 -5 0 -9 -6 -16
-13 -16 -8 0 -19 -10 -24 -22 -10 -22 -11 -21 -18 15 -9 46 -19 53 -39 26 -14
-20 -13 -23 7 -40 18 -14 20 -20 10 -30 -11 -11 -13 -10 -13 4 0 11 -8 17 -21
17 -16 0 -19 -4 -14 -20 4 -12 2 -20 -6 -20 -8 0 -9 10 -4 33 4 17 10 48 14
67 5 25 12 35 25 35 10 0 23 10 27 23 10 27 29 20 29 -11z m-263 -9 c-3 -8 -6
-5 -6 6 -1 11 2 17 5 13 3 -3 4 -12 1 -19z m533 -18 c-5 -22 -8 -27 -9 -13 -1
21 9 56 14 51 2 -2 0 -19 -5 -38z m194 24 c3 -8 2 -12 -4 -9 -6 3 -10 10 -10
16 0 14 7 11 14 -7z m106 12 c0 -2 -9 -6 -20 -9 -11 -3 -18 -1 -14 4 5 9 34
13 34 5z m-803 -48 c-4 -13 -20 -34 -37 -46 l-30 -23 0 31 c0 25 4 30 24 30
16 0 27 7 31 21 9 28 19 16 12 -13z m39 -17 c-9 -16 -16 -37 -16 -46 0 -11 -6
-14 -25 -9 -15 4 -25 2 -25 -5 0 -6 -5 -11 -10 -11 -18 0 4 30 31 43 13 7 25
21 27 32 5 26 25 51 30 37 2 -6 -4 -24 -12 -41z m-382 7 c-13 -60 -51 -97 -69
-68 -3 6 5 14 19 20 14 5 26 14 26 19 0 16 19 61 26 61 3 0 2 -15 -2 -32z
m1133 0 c-3 -7 -5 -2 -5 12 0 14 2 19 5 13 2 -7 2 -19 0 -25z m-1062 -10 c-13
-61 -45 -74 -45 -19 0 29 16 51 38 51 10 0 12 -8 7 -32z m1043 -8 c11 -22 16
-42 12 -45 -5 -3 -6 -14 -3 -25 3 -11 3 -20 0 -20 -3 0 -13 24 -21 54 -25 86
-20 101 12 36z m340 28 c7 -7 12 -22 12 -34 0 -15 12 -29 35 -43 25 -14 35
-27 34 -43 l-2 -23 -4 23 c-2 12 -11 22 -20 22 -11 0 -14 -7 -11 -25 3 -14 1
-28 -3 -31 -5 -3 -9 8 -9 25 0 16 -5 33 -10 36 -9 6 -50 87 -50 99 0 10 16 6
28 -6z m-288 -13 c0 -8 -2 -15 -4 -15 -2 0 -6 7 -10 15 -3 8 -1 15 4 15 6 0
10 -7 10 -15z m246 -3 c6 -4 14 -34 17 -67 4 -40 3 -51 -3 -32 -4 15 -20 41
-34 58 -14 17 -26 35 -26 40 0 11 30 12 46 1z m-776 -47 c0 -9 -6 -12 -15 -8
-9 3 -15 2 -14 -3 1 -5 1 -18 0 -29 -2 -19 -3 -18 -11 3 -5 12 -7 29 -4 37 8
19 44 20 44 0z m445 -5 c3 -5 2 -10 -4 -10 -5 0 -13 5 -16 10 -3 6 -2 10 4 10
5 0 13 -4 16 -10z m115 -32 c0 -10 -4 -18 -10 -18 -5 0 -10 15 -10 33 0 24 3
28 10 17 5 -8 10 -23 10 -32z m-1167 1 c10 -17 -30 -88 -50 -89 -19 0 -16 10
12 36 28 26 33 54 9 54 -8 0 -12 5 -9 11 8 13 26 7 38 -12z m1124 -1 c-3 -8
-6 -5 -6 6 -1 11 2 17 5 13 3 -3 4 -12 1 -19z m-1187 -39 c-6 -10 -15 -19 -20
-19 -13 0 -13 6 2 29 15 25 31 16 18 -10z m235 -23 c-19 -29 -35 -34 -35 -12
0 15 40 49 48 42 2 -3 -4 -16 -13 -30z m146 16 c-16 -31 -40 -47 -52 -35 -8 8
-5 17 10 32 27 27 56 29 42 3z m66 -7 c-13 -27 -36 -40 -49 -27 -12 12 20 52
42 52 16 0 17 -3 7 -25z m51 3 c-18 -26 -38 -35 -38 -16 0 18 20 38 38 38 12
0 12 -3 0 -22z m58 6 c-3 -9 -6 -18 -6 -20 0 -2 -7 -4 -15 -4 -13 0 -14 4 -5
20 13 24 35 27 26 4z m49 -4 c-10 -11 -22 -20 -27 -20 -5 0 -4 9 2 20 6 11 18
20 27 20 14 0 14 -2 -2 -20z m-479 -25 c-7 -18 -26 -20 -26 -2 0 18 24 41 28
27 2 -6 1 -17 -2 -25z m62 24 c-10 -5 -18 -17 -18 -24 0 -8 -7 -15 -15 -15 -8
0 -15 7 -15 15 0 16 27 34 50 34 12 0 11 -2 -2 -10z m122 7 c0 -18 -15 -36
-31 -36 -17 0 -18 3 -9 20 9 17 40 29 40 16z m655 -14 c-3 -3 -11 0 -18 7 -9
10 -8 11 6 5 10 -3 15 -9 12 -12z m47 1 c21 -19 23 -33 5 -33 -8 0 -19 11 -25
25 -13 29 -6 32 20 8z m66 -10 c13 -21 13 -23 -4 -23 -11 0 -24 12 -31 26 -10
21 -9 25 4 22 9 -2 22 -13 31 -25z m44 10 c10 -9 18 -20 18 -25 0 -16 -18 -8
-34 17 -19 29 -11 33 16 8z m71 -1 c16 -17 14 -32 -4 -32 -3 0 -14 11 -23 25
-13 20 -14 25 -3 25 8 0 21 -8 30 -18z m-1103 1 c0 -5 -4 -15 -10 -23 -11 -18
-25 -7 -17 15 6 15 27 21 27 8z m784 -7 c101 -31 170 -103 201 -210 41 -139
-27 -285 -161 -348 -195 -91 -417 38 -431 251 -15 211 186 368 391 307z m394
-13 c4 -30 -8 -29 -32 3 -18 26 -18 26 5 22 16 -2 25 -11 27 -25z m51 5 c11
-29 -7 -38 -26 -12 -17 23 -17 34 2 34 9 0 19 -10 24 -22z m43 5 c19 -17 24
-43 8 -43 -5 0 -16 14 -25 30 -17 33 -11 38 17 13z m68 -8 c9 -11 10 -19 3
-26 -7 -7 -16 -2 -27 15 -13 21 -14 26 -2 26 7 0 19 -7 26 -15z m50 -4 c12
-24 13 -31 2 -31 -5 0 -14 11 -20 25 -14 29 2 34 18 6z m-1500 -6 c0 -8 -4
-15 -10 -15 -5 0 -10 7 -10 15 0 8 5 15 10 15 6 0 10 -7 10 -15z m1548 -20
c-3 -3 -9 2 -12 12 -6 14 -5 15 5 6 7 -7 10 -15 7 -18z m42 4 c0 -6 -4 -7 -10
-4 -5 3 -10 11 -10 16 0 6 5 7 10 4 6 -3 10 -11 10 -16z m-1137 -14 c8 -8 18
-11 23 -7 5 4 2 -1 -5 -10 -7 -10 -20 -18 -27 -18 -8 0 -14 -7 -14 -15 0 -9
-7 -18 -16 -22 -8 -3 -13 -12 -10 -19 3 -7 0 -19 -7 -26 -14 -14 -17 -58 -5
-58 4 0 8 -9 8 -20 0 -15 -7 -20 -24 -20 -14 0 -28 5 -31 10 -3 6 -25 10 -48
10 -23 0 -47 4 -54 8 -19 12 -64 142 -58 163 7 22 27 28 110 32 135 7 144 7
158 -8z m-336 -15 c-6 -22 3 -26 20 -9 8 8 13 5 18 -10 3 -11 3 -25 0 -31 -3
-5 -1 -10 5 -10 7 0 9 -8 5 -21 -5 -16 -4 -19 6 -14 9 6 11 3 6 -8 -3 -10 -2
-17 3 -17 5 0 7 -7 4 -15 -4 -10 0 -15 11 -15 14 0 15 -3 5 -15 -10 -12 -10
-15 1 -15 11 0 11 -2 0 -9 -20 -13 16 -21 84 -20 28 0 68 -1 90 -3 l40 -3 0
51 c0 40 7 62 32 102 18 29 37 52 43 52 16 0 12 -18 -7 -29 -15 -8 -15 -11 -3
-26 10 -12 10 -19 3 -23 -6 -4 -15 -35 -19 -70 -7 -68 -13 -75 -76 -86 l-36
-7 10 -37 c11 -40 50 -88 80 -98 10 -3 18 -12 18 -20 0 -8 9 -23 20 -34 24
-24 27 -60 5 -60 -8 0 -15 7 -15 15 0 41 -88 115 -136 115 -10 0 -38 11 -61
25 -32 17 -43 20 -43 10 0 -36 -43 -23 -90 27 l-20 22 0 -26 c0 -29 -26 -56
-66 -67 -37 -10 -45 -52 -15 -78 25 -20 27 -33 7 -33 -41 0 -64 103 -27 115
32 10 43 29 31 59 -7 21 -6 34 6 57 11 22 12 34 5 43 -6 7 -8 34 -4 63 6 55
-2 103 -17 103 -6 0 -6 -9 1 -23 13 -28 -6 -86 -22 -70 -14 14 6 121 28 145 9
10 29 18 46 18 24 0 28 -3 24 -20z m1026 2 c8 25 21 -3 19 -42 -2 -22 2 -40 7
-40 12 0 25 45 17 58 -3 5 1 18 9 28 14 18 14 18 15 -3 0 -27 32 -47 48 -31 7
7 12 19 12 27 0 11 3 12 11 4 20 -20 22 -113 3 -135 -10 -10 -23 -18 -30 -18
-14 0 -7 -37 9 -47 5 -3 7 -1 4 4 -4 6 14 27 39 46 37 29 50 34 65 26 22 -11
23 -16 5 -49 -24 -42 -5 -60 52 -53 44 5 51 3 70 -22 37 -47 30 -78 -47 -205
-27 -45 -61 -65 -61 -36 0 8 15 34 33 58 19 24 37 56 41 71 7 28 6 28 -18 12
-26 -17 -92 -17 -89 0 1 6 8 24 14 41 7 18 9 39 4 50 -7 16 -9 15 -15 -11 -3
-16 -13 -41 -20 -55 -7 -13 -14 -38 -16 -55 -9 -97 -19 -130 -40 -133 -18 -3
-20 1 -16 27 2 17 8 28 13 25 14 -8 11 31 -5 61 -15 29 -20 26 -30 -20 -10
-46 -43 -95 -64 -95 -18 0 -18 3 4 47 13 25 24 52 24 59 0 6 12 19 26 29 14 9
32 32 40 50 21 51 17 55 -9 11 -32 -56 -54 -60 -27 -5 l21 44 -25 -30 c-14
-16 -28 -26 -32 -22 -7 7 6 28 52 84 17 21 21 31 11 29 -20 -3 -48 -26 -42
-36 2 -4 -5 -16 -18 -26 l-22 -19 20 24 c15 19 16 23 4 19 -18 -7 -22 19 -6
40 7 9 4 12 -9 13 -14 0 -11 3 9 11 15 5 27 14 27 19 0 12 -27 12 -35 -1 -3
-5 -12 -10 -18 -10 -7 0 -3 6 7 12 19 11 19 11 1 24 -10 8 -13 14 -7 14 10 0
10 5 1 22 l-12 22 -8 -22 c-12 -32 -26 -27 -34 11 -4 17 -12 38 -17 45 -6 6
-7 12 -3 12 5 0 0 9 -10 20 -10 11 -15 23 -11 27 4 4 11 1 16 -7 8 -12 10 -11
10 5 1 19 1 19 14 2 10 -13 15 -15 19 -5z m107 -2 c0 -5 -7 -10 -15 -10 -8 0
-15 5 -15 10 0 6 7 10 15 10 8 0 15 -4 15 -10z m109 -10 c22 0 49 -8 62 -19
13 -10 31 -20 39 -23 11 -4 15 -21 15 -76 l0 -72 -32 0 c-31 0 -31 1 -28 44 2
40 0 46 -24 56 -59 25 -72 35 -67 52 2 10 0 21 -5 24 -5 3 -9 13 -8 22 0 11 3
12 6 5 2 -7 22 -13 42 -13z m-1450 -47 c17 -51 26 -278 13 -323 -8 -28 -10 -2
-11 123 -1 116 -5 167 -16 194 -17 41 -18 43 -7 43 5 0 14 -17 21 -37z m1655
-121 c4 -68 4 -160 -1 -205 l-8 -82 -6 90 c-10 133 -10 353 0 335 5 -8 12 -70
15 -138z m34 -117 c0 -84 -3 -130 -8 -115 -4 14 -8 104 -8 200 1 126 3 158 8
115 4 -33 8 -123 8 -200z m49 25 c-2 -63 -9 -126 -15 -140 -8 -19 -11 23 -10
170 0 188 1 193 14 140 10 -38 13 -91 11 -170z m-1689 -67 c-2 -73 -7 -137
-13 -142 -7 -7 -9 62 -6 207 3 189 5 207 13 142 5 -41 8 -134 6 -207z m20 221
c4 -22 14 -39 21 -39 8 0 18 -7 24 -16 11 -18 0 -92 -13 -84 -5 3 -11 -4 -15
-15 -12 -39 -25 -20 -25 38 0 31 -3 82 -6 112 -8 62 1 65 14 4z m1716 -140
c-3 -39 -10 -77 -16 -85 -7 -10 -8 -4 -4 20 3 18 7 79 7 135 1 92 2 96 10 51
5 -27 6 -82 3 -121z m-1807 -11 c-2 -21 -4 -4 -4 37 0 41 2 58 4 38 2 -21 2
-55 0 -75z m1835 35 c-9 -9 -12 -7 -12 12 0 19 3 21 12 12 9 -9 9 -15 0 -24z
m-1865 -25 c-3 -10 -5 -4 -5 12 0 17 2 24 5 18 2 -7 2 -21 0 -30z m1403 33 c0
-2 -8 -10 -17 -17 -16 -13 -17 -12 -4 4 13 16 21 21 21 13z m-104 -36 c-2 -16
1 -30 6 -30 5 0 6 -5 2 -11 -3 -6 -3 -14 2 -18 5 -3 17 -18 26 -32 14 -22 15
-30 4 -50 -13 -26 -17 -35 -24 -61 -2 -10 -8 -18 -12 -18 -4 0 -10 -9 -13 -20
-4 -16 -14 -20 -50 -20 -24 0 -57 3 -73 6 l-29 6 44 49 c33 35 47 45 54 36 6
-9 7 -8 4 3 -2 8 4 27 15 42 10 14 21 48 24 75 6 55 11 73 18 73 3 0 4 -13 2
-30z m-691 -25 c-2 -14 1 -28 7 -31 6 -4 6 -9 -2 -14 -9 -6 -7 -11 9 -19 12
-7 19 -16 16 -22 -4 -5 -2 -9 4 -9 9 0 81 -102 81 -115 0 -3 -11 -5 -25 -5
-16 0 -25 6 -25 16 0 9 -11 29 -25 46 -14 16 -25 36 -25 44 0 8 -14 20 -30 26
-20 6 -32 19 -36 36 -4 15 -11 32 -16 39 -15 19 0 33 36 33 30 0 33 -3 31 -25z
m-439 -1 c-3 -9 -6 -20 -6 -25 0 -5 -7 -9 -15 -9 -18 0 -20 21 -3 38 17 17 31
15 24 -4z m-25 -80 c-12 -16 -21 -42 -21 -63 0 -20 -5 -43 -11 -51 -8 -11 -9
-5 -5 25 3 22 6 57 6 78 0 33 3 37 26 37 l25 0 -20 -26z m171 -8 c8 -7 40 -15
73 -18 32 -3 61 -10 63 -16 2 -7 21 -16 42 -22 39 -10 59 -43 37 -57 -17 -11
-277 -13 -277 -3 0 5 -7 7 -15 4 -9 -4 -16 3 -21 20 -3 14 -12 26 -20 26 -8 0
-11 6 -8 15 7 17 59 45 77 41 7 -1 9 -1 4 1 -11 7 2 23 18 23 7 0 20 -6 27
-14z m1212 -21 c3 9 16 14 33 14 22 -1 23 -3 7 -6 -16 -3 -23 -14 -28 -42 -3
-22 -16 -46 -31 -59 -14 -12 -25 -19 -26 -14 0 4 -2 17 -3 30 -2 13 1 25 5 28
5 2 6 11 2 19 -3 8 -2 23 2 33 6 16 7 16 20 -1 11 -15 13 -16 19 -2z m-970
-30 c30 -27 34 -56 10 -76 -15 -12 -16 -10 -10 18 6 27 3 37 -18 58 -32 32
-17 33 18 0z m1112 0 c8 -21 -15 -75 -33 -75 -11 0 -11 4 -3 20 6 11 8 31 4
45 -5 19 -2 25 10 25 9 0 19 -7 22 -15z m-53 -45 c-3 -11 -7 -20 -9 -20 -2 0
-4 9 -4 20 0 11 4 20 9 20 5 0 7 -9 4 -20z m-1436 -55 c0 -8 -4 -15 -9 -15 -4
0 -8 7 -8 15 0 8 4 15 8 15 5 0 9 -7 9 -15z m39 -12 c-10 -10 -19 5 -10 18 6
11 8 11 12 0 2 -7 1 -15 -2 -18z m40 0 c-10 -10 -19 5 -10 18 6 11 8 11 12 0
2 -7 1 -15 -2 -18z m44 11 c0 -8 -5 -12 -10 -9 -6 4 -8 11 -5 16 9 14 15 11
15 -7z m61 3 c-6 -8 -8 -17 -4 -20 3 -4 -1 -7 -10 -7 -24 0 -30 17 -10 29 25
15 37 13 24 -2z m51 -12 c-5 -27 -16 -32 -28 -13 -4 6 1 17 11 25 24 17 23 17
17 -12z m90 0 c4 -19 1 -25 -13 -25 -21 0 -25 20 -7 38 16 16 15 16 20 -13z
m-48 -24 c-9 -10 -26 18 -18 30 5 9 9 8 14 -7 4 -10 6 -21 4 -23z m91 14 c0
-26 -9 -33 -20 -15 -8 13 1 40 12 40 4 0 8 -11 8 -25z m55 10 c-6 -8 -9 -19
-5 -25 3 -5 -1 -10 -9 -10 -24 0 -31 22 -11 37 25 17 41 17 25 -2z m72 -1
c-12 -8 -22 -22 -22 -31 0 -13 -3 -13 -15 -3 -31 26 -15 46 40 49 18 1 18 0
-3 -15z m67 3 c-8 -7 -18 -20 -22 -30 -4 -10 -14 -17 -24 -15 -30 6 -25 28 9
43 40 17 58 19 37 2z m33 -22 c-4 -24 -21 -33 -35 -18 -7 7 21 43 33 43 4 0 5
-11 2 -25z m348 -10 c0 -8 -7 -15 -15 -15 -8 0 -15 4 -15 9 0 5 -3 17 -7 26
-5 15 -3 16 15 6 12 -7 22 -18 22 -26z m40 -13 c-14 -5 -16 -3 -24 28 l-7 25
21 -25 c14 -15 18 -26 10 -28z m260 6 c0 -17 -15 -7 -27 18 -12 26 -12 26 7 9
11 -10 20 -22 20 -27z m120 16 c0 -8 -4 -12 -10 -9 -5 3 -10 13 -10 21 0 8 5
12 10 9 6 -3 10 -13 10 -21z m34 11 c3 -8 1 -15 -4 -15 -6 0 -10 7 -10 15 0 8
2 15 4 15 2 0 6 -7 10 -15z m36 5 c0 -5 -2 -10 -4 -10 -3 0 -8 5 -11 10 -3 6
-1 10 4 10 6 0 11 -4 11 -10z m-790 -20 c0 -11 -7 -20 -15 -20 -15 0 -21 21
-8 33 12 13 23 7 23 -13z m248 8 c16 -16 15 -28 -3 -28 -8 0 -19 9 -25 20 -8
15 -8 20 3 20 7 0 18 -5 25 -12z m150 -11 c5 -24 -24 -21 -31 4 -4 15 -1 19
11 17 9 -2 18 -11 20 -21z m50 0 c2 -11 -3 -17 -14 -17 -10 0 -14 3 -11 7 4 3
1 13 -5 21 -10 12 -9 14 7 11 11 -3 21 -12 23 -22z m48 -15 c-9 -8 -26 10 -26
26 1 15 2 15 15 -2 8 -11 13 -21 11 -24z m53 25 c6 -8 8 -17 4 -20 -13 -13
-31 -7 -36 13 -6 23 14 27 32 7z m91 -9 c0 -19 -2 -20 -10 -8 -13 19 -13 30 0
30 6 0 10 -10 10 -22z m45 12 c3 -5 3 -15 -1 -21 -6 -11 -23 6 -24 24 0 10 18
9 25 -3z m-635 -21 c0 -14 -5 -19 -17 -17 -26 5 -29 38 -4 38 15 0 21 -6 21
-21z m60 0 c0 -4 -5 -11 -10 -14 -13 -8 -42 14 -35 25 6 10 45 1 45 -11z m53
6 c1 -5 -6 -11 -15 -13 -11 -2 -18 3 -18 13 0 17 30 18 33 0z m45 -3 c2 -7 -3
-12 -12 -12 -9 0 -16 7 -16 16 0 17 22 14 28 -4z m-408 -42 c0 -5 -4 -10 -10
-10 -5 0 -10 5 -10 10 0 6 5 10 10 10 6 0 10 -4 10 -10z m40 0 c0 -5 -5 -10
-11 -10 -5 0 -7 5 -4 10 3 6 8 10 11 10 2 0 4 -4 4 -10z m40 6 c0 -3 -4 -8
-10 -11 -5 -3 -10 -1 -10 4 0 6 5 11 10 11 6 0 10 -2 10 -4z m45 -6 c3 -6 -4
-10 -17 -10 -18 0 -20 2 -8 10 19 12 18 12 25 0z m55 0 c0 -5 -7 -10 -16 -10
-8 0 -12 5 -9 10 3 6 10 10 16 10 5 0 9 -4 9 -10z m55 0 c-3 -5 -13 -10 -21
-10 -8 0 -14 5 -14 10 0 6 9 10 21 10 11 0 17 -4 14 -10z m60 0 c-3 -5 -15
-10 -26 -10 -11 0 -17 5 -14 10 3 6 15 10 26 10 11 0 17 -4 14 -10z m50 0 c-3
-5 -13 -10 -21 -10 -8 0 -14 5 -14 10 0 6 9 10 21 10 11 0 17 -4 14 -10z m45
0 c0 -5 -7 -10 -15 -10 -8 0 -15 5 -15 10 0 6 7 10 15 10 8 0 15 -4 15 -10z
m40 0 c0 -5 -4 -10 -10 -10 -5 0 -10 5 -10 10 0 6 5 10 10 10 6 0 10 -4 10
-10z m55 0 c3 -5 -1 -10 -9 -10 -9 0 -16 5 -16 10 0 6 4 10 9 10 6 0 13 -4 16
-10z m50 0 c3 -5 -3 -10 -15 -10 -12 0 -18 5 -15 10 3 6 10 10 15 10 5 0 12
-4 15 -10z m35 0 c0 -5 -4 -10 -10 -10 -5 0 -10 5 -10 10 0 6 5 10 10 10 6 0
10 -4 10 -10z m35 0 c3 -5 1 -10 -4 -10 -6 0 -11 5 -11 10 0 6 2 10 4 10 3 0
8 -4 11 -10z m35 0 c0 -5 -4 -10 -10 -10 -5 0 -10 5 -10 10 0 6 5 10 10 10 6
0 10 -4 10 -10z m75 0 c3 -5 1 -10 -4 -10 -6 0 -11 5 -11 10 0 6 2 10 4 10 3
0 8 -4 11 -10z m-785 -51 c0 -20 -15 -26 -25 -9 -9 15 3 43 15 35 5 -3 10 -15
10 -26z m-200 -1 c0 -18 -2 -20 -9 -8 -6 8 -7 18 -5 22 9 14 14 9 14 -14z m70
7 c0 -8 -4 -15 -10 -15 -5 0 -10 7 -10 15 0 8 5 15 10 15 6 0 10 -7 10 -15z
m70 -16 c0 -5 -7 -9 -15 -9 -9 0 -15 9 -15 21 0 18 2 19 15 9 8 -7 15 -16 15
-21z m123 10 c4 -15 1 -19 -11 -17 -21 4 -29 38 -9 38 8 0 17 -9 20 -21z m61
5 c4 -9 4 -19 2 -22 -10 -9 -36 8 -36 23 0 20 26 19 34 -1z m64 -12 c3 -19 -1
-23 -15 -20 -10 2 -19 14 -21 26 -3 19 1 23 15 20 10 -2 19 -14 21 -26z m69
-6 c-9 -23 -37 -20 -37 3 0 21 20 33 34 20 5 -4 6 -15 3 -23z m52 -2 c-16 -19
-29 -17 -29 4 0 26 11 34 27 21 10 -9 10 -15 2 -25z m61 11 c0 -7 -7 -15 -15
-19 -15 -5 -22 24 -9 37 9 9 24 -2 24 -18z m40 -8 c0 -20 -1 -20 -16 -5 -9 9
-13 21 -9 27 10 16 25 3 25 -22z m65 7 c0 -10 -8 -20 -18 -22 -22 -4 -35 27
-16 39 20 12 34 5 34 -17z m39 20 c9 -3 16 -15 16 -26 0 -28 -34 -19 -38 10
-4 24 -2 25 22 16z m74 -22 c3 -19 -1 -23 -15 -20 -10 2 -19 14 -21 26 -3 19
1 23 15 20 10 -2 19 -14 21 -26z m47 7 c8 -25 1 -34 -20 -26 -19 8 -20 47 -1
47 8 0 18 -9 21 -21z m55 2 c0 -25 -20 -38 -31 -20 -15 23 -10 39 11 39 13 0
20 -7 20 -19z m63 13 c9 -9 -4 -34 -18 -34 -14 0 -27 25 -18 34 4 3 12 6 18 6
6 0 14 -3 18 -6z m55 -16 c-2 -13 -7 -23 -13 -23 -5 0 -11 10 -13 23 -2 15 2
22 13 22 11 0 15 -7 13 -22z m152 7 c0 -8 -4 -15 -10 -15 -5 0 -7 7 -4 15 4 8
8 15 10 15 2 0 4 -7 4 -15z m-70 -10 c-7 -8 -16 -15 -21 -15 -5 0 -6 7 -3 15
4 8 13 15 21 15 13 0 13 -3 3 -15z"/>
<path d="M916 3449 c-36 -28 -25 -37 18 -14 34 19 36 19 56 0 26 -24 39 -11
15 15 -23 26 -55 25 -89 -1z"/>
<path d="M1210 3445 c-27 -28 -20 -47 8 -22 21 19 48 22 57 7 3 -5 12 -10 18
-10 13 1 -39 50 -52 50 -4 0 -18 -11 -31 -25z"/>
<path d="M1080 3109 c0 -5 -5 -7 -11 -3 -7 4 -10 1 -7 -7 7 -20 32 -17 36 4 2
9 -1 17 -7 17 -6 0 -11 -5 -11 -11z"/>
<path d="M1203 3045 c-13 -29 1 -34 17 -6 12 23 13 31 3 31 -5 0 -13 -11 -20
-25z"/>
<path d="M990 3048 c0 -9 5 -20 11 -23 17 -11 18 -2 3 19 -12 17 -14 17 -14 4z"/>
<path d="M1021 1238 c-19 -5 -53 -22 -76 -38 -179 -123 -159 -386 37 -484 107
-54 252 -26 329 62 127 144 90 352 -80 439 -67 35 -137 42 -210 21z m110 -28
c0 -8 3 -10 5 -4 4 9 54 8 54 -1 0 -6 -62 -160 -66 -164 -2 -2 -2 31 1 75 6
94 -1 88 -13 -11 l-8 -70 -13 75 c-6 41 -14 84 -16 95 -3 16 1 20 25 20 20 0
30 -5 31 -15z m-56 -85 c6 -46 8 -82 3 -79 -4 3 -8 -4 -8 -14 0 -33 -26 -33
-108 -1 -98 40 -93 36 -79 62 18 34 58 70 67 61 32 -35 101 -126 98 -130 -3
-2 -35 19 -71 48 -37 28 -69 49 -72 46 -3 -2 27 -28 66 -58 51 -39 73 -50 81
-42 8 8 -1 26 -33 67 -73 94 -71 89 -44 101 22 11 25 8 56 -63 17 -40 34 -72
36 -69 2 2 -9 36 -26 76 -17 40 -31 74 -31 75 0 5 44 11 49 8 3 -2 10 -42 16
-88z m149 18 c-13 -18 -36 -49 -50 -68 -15 -20 -24 -38 -22 -41 3 -3 29 27 57
66 l52 71 19 -23 c47 -55 64 -82 67 -109 2 -18 -2 -29 -10 -30 -6 0 -47 -6
-89 -13 -43 -7 -78 -11 -78 -9 0 3 92 46 139 64 13 5 22 12 19 15 -3 2 -41
-11 -86 -30 -64 -27 -83 -32 -95 -23 -13 10 -10 24 21 103 36 91 37 91 58 75
l22 -16 -24 -32z m-266 -122 c46 -18 81 -35 80 -36 -2 -2 -45 2 -96 8 -71 9
-91 14 -87 25 3 7 5 20 5 29 0 8 4 13 8 11 4 -1 45 -18 90 -37z m172 -25 c20
-25 8 -61 -22 -64 -36 -4 -53 26 -32 56 18 25 37 28 54 8z m227 -24 l0 -27
-81 11 c-45 6 -83 13 -86 14 -5 2 120 26 151 29 11 1 16 -8 16 -27z m-352 1
c38 -6 36 -7 -40 -19 -115 -18 -115 -18 -115 12 0 26 1 26 58 20 31 -4 75 -10
97 -13z m354 -42 c2 -1 -2 -8 -9 -16 -6 -8 -9 -19 -5 -25 8 -14 10 -14 -74 20
-41 17 -79 29 -85 27 -8 -3 44 -26 127 -57 25 -9 26 -12 15 -32 -7 -13 -14
-25 -15 -27 -1 -2 -32 20 -68 49 -36 29 -68 50 -71 48 -4 -4 69 -64 119 -99
11 -8 -32 -59 -49 -59 -7 0 -17 -8 -23 -17 -9 -16 -11 -15 -19 7 -5 14 -22 54
-37 89 -24 58 -25 66 -11 76 9 7 13 15 9 18 -3 4 -1 7 6 7 7 0 10 4 7 8 -3 6
134 -7 183 -17z m-330 15 c-2 -2 -40 -20 -84 -40 -103 -46 -82 -47 25 -1 46
19 80 31 76 28 -3 -3 1 -11 10 -17 13 -10 11 -21 -18 -94 -17 -45 -35 -82 -38
-82 -3 0 -14 6 -24 13 -16 12 -13 18 34 81 29 37 50 70 47 72 -2 3 -28 -27
-56 -65 -50 -67 -53 -69 -71 -53 -18 16 -17 18 18 47 109 91 112 107 5 22 -46
-35 -63 -44 -63 -32 0 9 -7 23 -15 31 -8 9 -15 28 -15 43 0 27 3 29 63 38 70
12 112 15 106 9z m167 -212 c-1 -1 -13 -4 -27 -7 -26 -7 -27 -5 -33 56 -4 34
-9 78 -12 97 -3 24 8 6 34 -55 21 -49 38 -90 38 -91z m-118 69 c-10 -89 -11
-91 -32 -80 -11 7 -23 13 -25 14 -1 1 12 38 30 82 18 44 34 80 35 78 1 -1 -3
-43 -8 -94z m51 -59 c1 -16 -6 -23 -25 -27 -28 -5 -28 -8 -7 143 l7 45 12 -70
c7 -38 13 -80 13 -91z"/>
<path d="M1228 1076 c-52 -41 -76 -66 -64 -66 2 0 35 25 71 55 80 65 75 74 -7
11z"/>
<path d="M1093 993 c-15 -5 -17 -39 -4 -47 16 -10 41 5 41 24 0 19 -17 30 -37
23z"/>
<path d="M1150 904 c0 -8 100 -134 106 -134 7 0 -5 19 -53 83 -42 54 -53 65
-53 51z"/>
<path d="M350 1160 c0 -5 5 -10 10 -10 6 0 10 5 10 10 0 6 -4 10 -10 10 -5 0
-10 -4 -10 -10z"/>
<path d="M393 1115 c-3 -9 -3 -18 -1 -21 3 -3 8 4 11 16 6 23 -1 27 -10 5z"/>
<path d="M406 1084 c-5 -14 -4 -15 9 -4 17 14 19 20 6 20 -5 0 -12 -7 -15 -16z"/>
<path d="M427 1066 c-7 -19 14 -87 25 -80 4 3 8 -2 8 -10 0 -9 5 -16 10 -16
13 0 13 3 -3 34 -8 14 -17 22 -22 18 -4 -4 -4 4 0 17 5 17 4 21 -5 16 -9 -5
-10 -2 -5 14 7 23 0 29 -8 7z"/>
<path d="M1523 1123 c-18 -7 -16 -33 3 -33 8 0 12 -4 9 -10 -8 -13 8 -13 22 1
6 6 8 19 6 30 -5 19 -16 22 -40 12z"/>
<path d="M1700 1110 c0 -5 5 -10 10 -10 6 0 10 5 10 10 0 6 -4 10 -10 10 -5 0
-10 -4 -10 -10z"/>
<path d="M800 770 c0 -5 5 -10 10 -10 6 0 10 5 10 10 0 6 -4 10 -10 10 -5 0
-10 -4 -10 -10z"/>
<path d="M480 770 c0 -5 5 -10 10 -10 6 0 10 5 10 10 0 6 -4 10 -10 10 -5 0
-10 -4 -10 -10z"/>
<path d="M2833 3211 c-62 -29 -92 -106 -63 -162 10 -17 7 -19 -20 -19 -28 0
-30 -3 -30 -35 0 -32 2 -35 30 -35 l30 0 0 -210 0 -210 45 0 45 0 0 210 0 210
65 0 65 0 0 -48 c0 -40 5 -53 29 -76 18 -17 44 -30 70 -33 l41 -6 0 37 c0 24
-5 36 -14 36 -19 0 -46 27 -46 45 0 20 44 47 64 39 23 -9 46 -56 46 -94 0 -20
-11 -42 -33 -66 -32 -35 -35 -36 -78 -27 -65 13 -102 4 -114 -31 -8 -25 -6
-31 20 -53 24 -21 36 -24 77 -21 l49 5 63 -68 c35 -38 68 -69 73 -69 5 0 20
11 32 24 l22 24 -60 64 -60 65 34 33 c19 19 42 53 51 77 16 40 15 60 -2 121
-6 22 -4 23 37 20 l44 -3 3 -207 2 -208 40 0 40 0 2 208 3 207 38 3 c35 3 37
5 37 38 l0 34 -125 0 -125 0 -69 70 c-83 85 -154 121 -250 127 -51 3 -76 -1
-108 -16z m217 -92 c30 -17 71 -43 90 -59 l35 -29 -161 -1 -161 0 -6 29 c-9
44 3 72 37 87 41 18 98 9 166 -27z"/>
<path d="M4780 3160 c-24 -24 -25 -34 -4 -54 30 -30 84 -14 84 24 0 19 -30 50
-48 50 -7 0 -21 -9 -32 -20z"/>
<path d="M3624 3026 c-65 -29 -82 -96 -40 -158 l23 -35 -38 -40 c-48 -51 -58
-98 -34 -158 23 -62 63 -88 142 -93 35 -3 63 -7 63 -11 0 -4 13 -22 29 -41
l30 -35 27 27 27 26 -22 31 -22 30 21 40 c25 51 25 86 0 111 -43 43 -105 8
-116 -65 -5 -38 -10 -45 -29 -45 -63 0 -93 81 -52 140 l25 35 116 0 116 1 0
-123 0 -123 45 0 45 0 2 208 3 207 58 3 57 3 0 -211 0 -210 45 0 45 0 0 210 0
210 35 0 c33 0 35 2 35 35 l0 35 -185 0 -185 0 0 -79 0 -79 -44 -11 c-25 -6
-56 -11 -71 -11 -24 0 -25 1 -11 23 37 59 21 123 -39 151 -40 19 -60 20 -101
2z m74 -86 c2 -14 -4 -34 -13 -45 -15 -20 -15 -20 -30 -1 -18 24 -19 48 -3 64
19 19 43 10 46 -18z"/>
<path d="M4420 2996 l0 -35 58 -3 57 -3 3 -87 3 -88 -36 0 c-30 0 -35 -3 -35
-23 0 -52 98 -148 136 -133 9 3 14 20 14 46 l0 40 75 0 75 0 0 -85 0 -85 45 0
45 0 0 210 0 210 163 -2 162 -3 3 -42 c4 -49 -1 -51 -43 -23 -16 11 -45 20
-64 20 -49 0 -141 -31 -141 -47 0 -12 16 -49 25 -61 1 -1 26 6 54 18 28 11 60
20 69 20 22 0 94 -49 90 -60 -2 -5 -48 -40 -102 -77 -55 -37 -101 -72 -103
-78 -1 -5 6 -21 16 -35 l19 -24 84 57 c45 31 86 57 91 57 4 0 7 -31 7 -70 l0
-70 40 0 40 0 2 208 3 207 58 3 57 3 0 -211 0 -210 45 0 45 0 0 210 0 210 213
-2 c207 -3 212 -3 215 -24 3 -18 -4 -22 -36 -28 -22 -3 -45 -13 -52 -21 -11
-13 -15 -12 -37 5 -28 22 -88 26 -126 9 -59 -27 -82 -126 -47 -207 23 -53 93
-128 148 -156 30 -15 30 -15 50 16 l21 32 -49 33 c-61 41 -91 84 -97 136 -9
82 49 104 72 29 8 -28 13 -32 46 -32 32 0 37 3 42 29 6 30 39 57 57 46 6 -4
10 -65 10 -146 l0 -139 45 0 45 0 0 210 0 211 72 -3 c68 -3 72 -4 81 -31 13
-40 1 -76 -33 -95 -26 -15 -29 -21 -24 -47 10 -48 51 -112 88 -134 36 -23 113
-28 147 -11 18 10 19 7 19 -45 l0 -55 50 0 50 0 0 210 0 210 36 0 c34 0 35 1
32 33 l-3 32 -1047 3 -1048 2 0 -34z m350 -126 l0 -90 -75 0 -75 0 0 83 c0 46
3 87 7 90 3 4 37 7 75 7 l68 0 0 -90z m1580 -14 c0 -101 -1 -105 -26 -125 -36
-28 -79 -27 -109 4 -32 31 -31 37 5 73 23 23 30 39 30 69 0 21 -4 45 -9 53
-15 23 -3 30 55 30 l54 0 0 -104z"/>
<path d="M4679 2227 c-77 -29 -119 -78 -119 -140 0 -75 21 -96 203 -205 61
-36 79 -68 66 -118 -5 -17 -20 -36 -35 -45 -39 -20 -130 -16 -187 9 l-48 21 3
-42 c3 -41 4 -42 53 -55 64 -17 162 -10 212 14 74 37 102 116 67 190 -19 40
-46 61 -158 125 -114 65 -135 120 -64 172 33 25 125 27 181 4 l37 -16 0 33 c0
19 -6 39 -14 46 -22 18 -155 23 -197 7z"/>
<path d="M6805 2231 c-51 -13 -91 -39 -132 -85 -139 -158 -70 -445 120 -497
51 -14 155 -6 201 16 39 19 102 78 121 115 22 42 38 147 32 206 -7 72 -48 155
-95 194 -61 51 -162 71 -247 51z m163 -75 c71 -37 102 -103 102 -216 0 -143
-51 -215 -166 -235 -155 -25 -265 128 -220 306 17 66 46 106 101 140 37 23
143 26 183 5z"/>
<path d="M2770 1940 l0 -290 41 0 41 0 -7 238 c-5 204 -4 234 8 212 8 -14 56
-121 108 -238 80 -181 96 -212 113 -210 16 2 42 54 120 231 l101 228 3 -230 2
-231 35 0 35 0 0 290 0 290 -44 0 -44 0 -103 -230 c-56 -127 -106 -227 -110
-223 -4 5 -45 96 -92 203 -46 107 -90 207 -97 223 -12 24 -19 27 -62 27 l-48
0 0 -290z"/>
<path d="M3520 1940 l0 -290 35 0 35 0 0 290 0 290 -35 0 -35 0 0 -290z"/>
<path d="M3740 1941 l0 -291 35 0 35 0 2 241 3 242 155 -241 155 -242 43 0 42
0 0 290 0 290 -35 0 -35 0 -2 -236 -3 -237 -150 234 -150 234 -48 3 -47 3 0
-290z"/>
<path d="M4370 1940 l0 -290 30 0 30 0 0 290 0 290 -30 0 -30 0 0 -290z"/>
<path d="M4967 2223 c-4 -3 -7 -17 -7 -30 0 -22 3 -23 85 -23 l85 0 0 -260 0
-260 35 0 35 0 0 260 0 260 85 0 85 0 0 30 0 30 -198 0 c-109 0 -202 -3 -205
-7z"/>
<path d="M5460 1940 l0 -290 35 0 35 0 0 125 0 125 30 0 c62 0 94 -24 147
-106 28 -44 58 -94 67 -111 15 -29 21 -33 57 -33 32 0 40 3 36 15 -12 30 -140
221 -158 235 -20 15 -19 17 17 40 61 40 79 73 79 140 0 53 -3 62 -34 94 -42
43 -91 56 -215 56 l-96 0 0 -290z m240 202 c19 -15 26 -29 28 -65 2 -26 -2
-56 -8 -68 -16 -29 -70 -49 -135 -49 l-55 0 0 106 0 107 72 -6 c48 -4 81 -13
98 -25z"/>
<path d="M5890 2225 c0 -3 41 -86 90 -185 l90 -180 0 -105 0 -105 35 0 35 0 0
105 0 106 96 185 96 185 -38 -3 -39 -3 -74 -145 -75 -144 -70 147 -69 147 -39
0 c-21 0 -38 -2 -38 -5z"/>
<path d="M7260 1940 l0 -290 35 0 35 0 0 125 0 125 106 0 105 0 -3 33 -3 32
-102 3 -103 3 0 99 0 100 115 0 115 0 0 30 0 30 -150 0 -150 0 0 -290z"/>
<path d="M4830 1421 c-89 -28 -169 -96 -209 -181 -23 -48 -26 -68 -26 -155 0
-81 4 -109 21 -146 31 -66 78 -114 142 -146 52 -26 66 -28 163 -26 69 1 118 6
142 17 l37 15 0 67 c0 59 -2 65 -17 59 -10 -3 -46 -14 -80 -23 -53 -14 -69
-14 -109 -4 -100 27 -144 87 -144 197 0 69 20 124 57 157 51 47 159 61 238 33
22 -8 43 -15 48 -15 4 0 7 31 7 70 l0 69 -37 10 c-43 12 -195 13 -233 2z"/>
<path d="M6877 1416 c-134 -48 -209 -160 -211 -316 -2 -149 54 -249 172 -307
50 -24 68 -28 142 -27 102 1 164 24 227 86 69 67 88 123 88 253 0 95 -4 116
-24 155 -35 68 -98 127 -159 150 -62 24 -177 26 -235 6z m189 -135 c17 -11 41
-40 54 -65 19 -40 21 -59 18 -135 -3 -82 -6 -92 -33 -127 -57 -70 -154 -80
-220 -23 -49 43 -69 103 -63 188 6 79 30 128 81 160 42 27 120 28 163 2z"/>
<path d="M2772 1098 l3 -323 195 0 195 0 3 58 3 57 -126 0 -125 0 0 75 0 75
110 0 110 0 0 60 0 60 -110 0 -110 0 0 70 0 69 118 3 117 3 3 58 3 57 -196 0
-195 0 2 -322z"/>
<path d="M3270 1094 l0 -327 163 5 c193 6 250 23 321 93 64 65 89 123 94 221
8 148 -42 245 -156 301 -55 27 -63 28 -239 31 l-183 4 0 -328z m299 196 c39
-11 86 -51 107 -92 17 -32 19 -144 3 -185 -13 -35 -55 -80 -92 -100 -16 -8
-60 -17 -98 -20 l-69 -6 0 207 0 206 58 0 c31 0 73 -4 91 -10z"/>
<path d="M3952 1183 c4 -259 10 -287 66 -346 51 -54 98 -71 197 -71 105 0 166
22 214 81 50 61 61 124 61 361 l0 212 -74 0 -74 0 -4 -227 c-3 -251 -5 -260
-66 -289 -39 -18 -96 -12 -126 14 -42 39 -46 61 -46 287 l0 215 -76 0 -76 0 4
-237z"/>
<path d="M5263 1113 c-61 -170 -113 -315 -115 -323 -2 -12 12 -16 74 -18 l77
-3 22 69 22 70 45 6 c25 3 77 6 117 6 l71 0 24 -75 24 -75 78 0 c43 0 78 4 78
9 0 11 -216 616 -225 631 -3 5 -45 10 -93 10 l-88 0 -111 -307z m235 55 c19
-61 36 -117 39 -125 4 -10 -13 -13 -77 -13 -64 0 -81 3 -77 13 3 8 20 64 39
125 18 62 35 112 38 112 3 0 20 -50 38 -112z"/>
<path d="M5802 1363 l3 -58 93 -3 92 -3 0 -264 0 -265 75 0 75 0 0 265 0 265
90 0 90 0 0 60 0 60 -260 0 -261 0 3 -57z"/>
<path d="M6410 1095 l0 -326 73 3 72 3 3 323 2 322 -75 0 -75 0 0 -325z"/>
<path d="M7410 1095 l0 -325 70 0 70 0 0 228 0 227 134 -205 c74 -113 141
-215 150 -227 15 -20 26 -23 91 -23 l75 0 0 325 0 325 -70 0 -70 0 0 -210 c0
-115 -3 -210 -7 -210 -5 0 -69 95 -143 210 l-135 210 -82 0 -83 0 0 -325z"/>
<path d="M812 343 c2 -10 12 -19 23 -21 21 -4 65 -40 65 -54 0 -4 -168 -9
-372 -10 -341 -3 -373 -4 -376 -20 -3 -13 6 -17 40 -20 39 -3 43 -6 46 -32 4
-34 -14 -58 -24 -33 -7 19 -29 23 -39 7 -8 -13 41 -102 71 -131 19 -18 27 -20
36 -11 9 9 7 19 -10 42 -28 37 -28 46 0 54 58 15 67 10 70 -46 3 -46 6 -53 26
-56 22 -3 22 -2 22 102 l0 106 90 0 90 0 0 -26 c0 -21 -3 -25 -17 -19 -39 16
-64 17 -88 1 -34 -23 -34 -78 0 -129 28 -40 37 -44 54 -23 9 11 9 16 0 21 -17
11 -40 72 -33 89 10 27 41 18 64 -19 27 -44 54 -59 91 -51 27 5 29 3 29 -25 0
-26 3 -30 23 -27 21 3 22 8 25 106 l3 102 34 0 c35 0 35 0 35 -45 0 -33 -4
-45 -15 -45 -25 0 -17 -27 18 -56 l32 -27 10 27 c8 22 14 26 40 24 28 -3 30
-6 33 -45 3 -35 7 -43 23 -43 18 0 19 8 19 105 l0 105 85 0 c67 0 85 -3 85
-14 0 -11 -9 -13 -34 -9 -28 4 -39 1 -60 -20 -32 -32 -33 -68 -2 -103 18 -22
32 -28 60 -27 30 1 36 -3 36 -19 0 -14 6 -19 23 -16 21 3 22 8 25 102 2 78 6
102 19 111 35 26 3 35 -120 35 l-123 0 -18 31 c-29 50 -54 69 -87 69 -24 0
-30 -4 -27 -17z m-472 -158 c0 -31 -3 -35 -25 -35 -14 0 -25 6 -25 13 0 6 -3
22 -6 35 -6 19 -3 22 25 22 29 0 31 -2 31 -35z m330 -15 c0 -44 -3 -52 -25
-62 -21 -9 -29 -9 -41 4 -15 14 -14 18 1 41 10 16 14 34 10 47 -5 17 -2 20 24
20 30 0 31 -1 31 -50z m240 5 c0 -45 0 -45 -35 -45 -35 0 -35 0 -35 45 0 45 0
45 35 45 35 0 35 0 35 -45z m194 -21 c35 -13 7 -69 -31 -62 -19 3 -28 30 -19
54 6 15 24 18 50 8z"/>
<path d="M1822 343 c2 -11 14 -19 30 -21 17 -2 36 -15 48 -33 l21 -29 -320 0
c-314 0 -321 0 -321 -20 0 -19 7 -20 100 -20 93 0 100 -1 100 -20 0 -17 -7
-20 -44 -20 -51 0 -61 -9 -41 -36 19 -25 19 -54 0 -54 -17 0 -41 34 -50 73 -5
17 -14 27 -26 27 -24 0 -24 -23 0 -75 23 -51 41 -66 82 -67 40 -1 62 26 55 65
-4 19 -1 27 9 27 12 0 15 -14 15 -65 0 -58 2 -65 20 -65 19 0 20 7 20 106 l0
105 37 -3 c43 -3 58 -33 28 -54 -16 -12 -16 -17 -5 -44 17 -41 52 -63 89 -58
26 4 30 1 33 -21 2 -18 9 -26 23 -26 19 0 20 8 23 103 l3 102 84 0 c78 0 85
-2 85 -20 0 -16 -7 -20 -34 -20 -63 0 -86 -15 -86 -55 0 -39 19 -83 44 -104
13 -11 19 -11 31 -1 13 11 14 15 2 29 -47 53 -43 91 9 91 l34 0 0 -66 c0 -62
1 -65 23 -62 21 3 22 8 25 106 2 84 5 102 18 102 23 0 13 34 -11 38 -11 2 -33
25 -50 50 -26 41 -35 47 -68 50 -33 3 -38 1 -35 -15z m-122 -173 c0 -57 -23
-80 -60 -60 -24 13 -25 23 -4 41 10 8 14 23 12 41 -4 25 -2 28 24 28 27 0 28
-2 28 -50z"/>
</g>
</svg>
