<svg width="24" height="24" viewBox="0 0 24 24" fill="none" xmlns="http://www.w3.org/2000/svg">
<g id="Add circle outline" clip-path="url(#clip0_357_615)">
<path id="Vector" d="M12.9375 7.3125H11.0625V11.0625H7.3125V12.9375H11.0625V16.6875H12.9375V12.9375H16.6875V11.0625H12.9375V7.3125ZM12 2.625C6.825 2.625 2.625 6.825 2.625 12C2.625 17.175 6.825 21.375 12 21.375C17.175 21.375 21.375 17.175 21.375 12C21.375 6.825 17.175 2.625 12 2.625ZM12 19.5C7.86563 19.5 4.5 16.1344 4.5 12C4.5 7.86563 7.86563 4.5 12 4.5C16.1344 4.5 19.5 7.86563 19.5 12C19.5 16.1344 16.1344 19.5 12 19.5Z" fill="#01C9BA"/>
</g>
<defs>
<clipPath id="clip0_357_615">
<rect width="22.5" height="22.5" fill="white" transform="translate(0.75 0.75)"/>
</clipPath>
</defs>
</svg>
