<svg width="16" height="23" viewBox="0 0 16 23" fill="none" xmlns="http://www.w3.org/2000/svg">
    <g id="Record Audio">
        <path id="Shape" fill-rule="evenodd" clip-rule="evenodd"
            d="M7.91265 0.549805C10.3047 0.549805 12.2439 2.48897 12.2439 4.88105V11.6186C12.2439 14.0106 10.3047 15.9498 7.91265 15.9498C5.52057 15.9498 3.5814 14.0106 3.5814 11.6186V4.88105C3.5814 2.48897 5.52057 0.549805 7.91265 0.549805ZM0.934434 10.4906C1.22148 10.4906 1.45962 10.7001 1.50438 10.9745L1.51193 11.0681V11.1951C1.51193 14.7949 4.3797 17.7094 7.91256 17.7094C11.3703 17.7094 14.1909 14.9176 14.3093 11.4239L14.3132 11.1951V11.0781C14.3132 10.7592 14.5717 10.5006 14.8907 10.5006C15.1777 10.5006 15.4159 10.7101 15.4606 10.9845L15.4682 11.0781L15.4646 11.4339C15.3462 15.3615 12.3175 18.5488 8.48993 18.8423L8.49006 22.2058C8.49006 22.5248 8.2315 22.7833 7.91256 22.7833C7.62551 22.7833 7.38737 22.5739 7.34262 22.2995L7.33506 22.2058L7.33551 18.8424C3.51017 18.5492 0.482731 15.3657 0.360755 11.4413L0.356934 11.0681C0.356934 10.7492 0.615489 10.4906 0.934434 10.4906ZM4.73612 4.88124C4.73612 3.12705 6.15818 1.70499 7.91237 1.70499C9.66656 1.70499 11.0886 3.12705 11.0886 4.88124V11.6187C11.0886 13.3729 9.66656 14.795 7.91237 14.795C6.15818 14.795 4.73612 13.3729 4.73612 11.6187V4.88124Z"
            fill="#007AFF" />
    </g>
</svg>