<svg xmlns="http://www.w3.org/2000/svg" width="24" height="24" viewBox="0 0 24 24" fill="">
    <g clip-path="url(#clip0_651_630)">
        <path
            d="M12 13.875C13.5562 13.875 14.8031 12.6187 14.8031 11.0625L14.8125 5.4375C14.8125 3.88125 13.5562 2.625 12 2.625C10.4437 2.625 9.1875 3.88125 9.1875 5.4375V11.0625C9.1875 12.6187 10.4437 13.875 12 13.875ZM17.7656 11.0625C17.3255 11.0625 16.9762 11.422 16.9035 11.856C16.5049 14.2384 14.3365 15.8438 12 15.8438C9.66347 15.8438 7.49512 14.2384 7.09647 11.856C7.02384 11.422 6.67448 11.0625 6.23437 11.0625C5.79427 11.0625 5.43198 11.4211 5.49053 11.8573C5.80683 14.2136 7.50481 16.1689 9.68846 17.0015C10.4528 17.2929 11.0625 17.9678 11.0625 18.7858V19.5C11.0625 20.0178 11.4822 20.4375 12 20.4375C12.5178 20.4375 12.9375 20.0178 12.9375 19.5V18.7881C12.9375 17.9694 13.5491 17.2946 14.3145 17.004C16.4974 16.1755 18.1943 14.2194 18.5098 11.8574C18.568 11.4211 18.2057 11.0625 17.7656 11.0625Z"
            fill="#9E9E9E" />
    </g>
    <defs>
        <clipPath id="clip0_651_630">
            <rect width="22.5" height="22.5" fill="white" transform="translate(0.75 0.75)" />
        </clipPath>
    </defs>
</svg>