<svg xmlns="http://www.w3.org/2000/svg" width="18" height="18" viewBox="0 0 18 18" fill="none">
<g clip-path="url(#clip0_241_236)">
<path d="M0.979126 14.1041C0.979126 14.9095 1.63204 15.5625 2.43746 15.5625C3.24287 15.5625 3.89579 14.9095 3.89579 14.1041V8.27079C3.89579 7.46538 3.24287 6.81246 2.43746 6.81246C1.63204 6.81246 0.979126 7.46538 0.979126 8.27079V14.1041ZM17.0208 7.54163C17.0208 6.73954 16.3645 6.08329 15.5625 6.08329H13.4199C12.1517 6.08329 11.2037 4.91796 11.4618 3.67624L11.6541 2.751L11.676 2.51767C11.676 2.21871 11.552 1.94163 11.3552 1.74475C10.9278 1.32142 10.2386 1.32331 9.81356 1.74899L5.78433 5.78433C5.51454 6.04683 5.35413 6.41142 5.35413 6.81246V14.1041C5.35413 14.9062 6.01038 15.5625 6.81246 15.5625H13.375C13.9802 15.5625 14.4979 15.1979 14.7166 14.6729L16.9187 9.53225C16.9843 9.36454 17.0208 9.18954 17.0208 8.99996V7.54163Z" fill="#CF4147"/>
</g>
<defs>
<clipPath id="clip0_241_236">
<rect width="17.5" height="17.5" fill="white" transform="translate(0.25 0.25)"/>
</clipPath>
</defs>
</svg>