<svg xmlns="http://www.w3.org/2000/svg" width="32" height="32" viewBox="0 0 32 32" fill="">
    <path
        d="M10.6 26.4C12.2569 26.4 13.6 25.0569 13.6 23.4V21.6C13.6 20.2745 14.6745 19.2 16 19.2C17.3255 19.2 18.4 20.2745 18.4 21.6V23.4C18.4 25.0569 19.7431 26.4 21.4 26.4C23.0569 26.4 24.4 25.0569 24.4 23.4V17.7983C24.4 17.247 24.847 16.8 25.3983 16.8C26.3133 16.8 26.7463 15.6717 26.0662 15.0596L18.0069 7.8062C16.866 6.77938 15.134 6.77938 13.9931 7.8062L5.93379 15.0596C5.2537 15.6717 5.68668 16.8 6.60165 16.8C7.15302 16.8 7.6 17.247 7.6 17.7983V23.4C7.6 25.0569 8.94315 26.4 10.6 26.4Z"
        fill="" />
</svg>