<svg width="31" height="31" viewBox="0 0 31 31" fill="none" xmlns="http://www.w3.org/2000/svg">
<g filter="url(#filter0_d_1761_2420)">
<path fill-rule="evenodd" clip-rule="evenodd" d="M13.9024 0C12.8248 0 11.9512 0.873593 11.9512 1.95122V12.2439C11.9512 13.3216 12.8248 14.1952 13.9024 14.1952H22.1951L26.997 18.3707C27.3127 18.6452 27.8049 18.421 27.8049 18.0026V14.1952H28.0488C29.1264 14.1952 30 13.3216 30 12.2439V1.95122C30 0.873593 29.1264 0 28.0488 0H13.9024Z" fill="#CF4147"/>
<path d="M23.5413 5.36104V10.5513C23.4828 10.5643 23.4145 10.5773 23.3364 10.5903C23.2584 10.6098 23.1673 10.6196 23.0633 10.6196C22.8226 10.6196 22.6535 10.5806 22.5559 10.5025C22.4584 10.418 22.4096 10.2846 22.4096 10.1025V8.09275C22.286 8.11877 22.1137 8.13177 21.8925 8.13177C21.6974 8.13177 21.4925 8.11226 21.2779 8.07324C21.0632 8.02771 20.8876 7.97568 20.751 7.91714L20.7315 7.94641C20.8486 8.04397 20.9429 8.1773 21.0145 8.34641C21.0925 8.51552 21.1315 8.68787 21.1315 8.86348C21.1315 9.32527 20.9494 9.6895 20.5852 9.95617C20.221 10.2228 19.7136 10.3562 19.0632 10.3562C18.8486 10.3562 18.6372 10.3399 18.4291 10.3074C18.221 10.2749 18.0323 10.2261 17.8632 10.161C17.7006 10.0895 17.5673 10.0017 17.4632 9.89763C17.3657 9.78706 17.3169 9.66023 17.3169 9.51714C17.3169 9.36105 17.3592 9.23422 17.4437 9.13666C17.5283 9.03909 17.6193 8.97405 17.7169 8.94153C17.8665 9.07161 18.0454 9.18544 18.2535 9.283C18.4616 9.37405 18.7023 9.41958 18.9754 9.41958C19.2876 9.41958 19.5315 9.34804 19.7071 9.20495C19.8828 9.06186 19.9706 8.86674 19.9706 8.61958C19.9706 8.37893 19.8925 8.18706 19.7364 8.04397C19.5868 7.89438 19.3852 7.81958 19.1315 7.81958H18.2145C18.1819 7.76755 18.1527 7.70576 18.1267 7.63421C18.1071 7.55616 18.0974 7.46836 18.0974 7.3708C18.0974 7.27974 18.1071 7.19519 18.1267 7.11714C18.1527 7.03909 18.1819 6.9708 18.2145 6.91226H19.034C19.2941 6.91226 19.4958 6.84397 19.6389 6.70738C19.7884 6.5708 19.8632 6.38218 19.8632 6.14153C19.8632 5.92689 19.7917 5.74478 19.6486 5.59518C19.5055 5.44559 19.2811 5.37079 18.9754 5.37079C18.7608 5.37079 18.5689 5.40982 18.3998 5.48787C18.2372 5.56591 18.1006 5.65697 17.9901 5.76104C17.8665 5.709 17.7657 5.63746 17.6876 5.5464C17.6096 5.44884 17.5706 5.33502 17.5706 5.20494C17.5706 4.9903 17.7071 4.80819 17.9803 4.65859C18.26 4.509 18.634 4.4342 19.1023 4.4342C19.3819 4.4342 19.6389 4.47323 19.873 4.55128C20.1071 4.62282 20.3088 4.72689 20.4779 4.86347C20.6535 5.00006 20.7901 5.16591 20.8876 5.36104C20.9852 5.54965 21.034 5.76429 21.034 6.00494C21.034 6.2521 20.9787 6.46998 20.8681 6.6586C20.7641 6.84722 20.6372 6.99681 20.4876 7.10738C20.5787 7.1399 20.7088 7.16917 20.8779 7.19519C21.0535 7.2147 21.2161 7.22446 21.3657 7.22446C21.7494 7.22446 22.0974 7.17242 22.4096 7.06836V5.36104H21.8047C21.6746 5.36104 21.5836 5.32526 21.5315 5.25372C21.4795 5.18217 21.4535 5.0716 21.4535 4.92201C21.4535 4.86347 21.46 4.79518 21.473 4.71713C21.486 4.63258 21.5023 4.56429 21.5218 4.51225H24.2437C24.4779 4.51225 24.595 4.65534 24.595 4.94152C24.595 5.00006 24.5885 5.0716 24.5754 5.15616C24.5624 5.24071 24.5429 5.309 24.5169 5.36104H23.5413Z" fill="white"/>
<path fill-rule="evenodd" clip-rule="evenodd" d="M16.0976 11.5122C17.1752 11.5122 18.0488 12.3858 18.0488 13.4634V23.7561C18.0488 24.8338 17.1752 25.7074 16.0976 25.7074H7.8049L3.00302 29.8829C2.6873 30.1574 2.19513 29.9332 2.19513 29.5148V25.7074H1.95123C0.873597 25.7074 1.90735e-06 24.8338 1.90735e-06 23.7561V13.4634C1.90735e-06 12.3858 0.873595 11.5122 1.95123 11.5122H16.0976Z" fill="#FCB915"/>
<path d="M10.725 21.5366L10.2684 20.0439H7.98547L7.52888 21.5366H6.09766L8.31034 15.241H9.93474L12.1562 21.5366H10.725ZM9.49571 17.4712C9.46645 17.3717 9.4284 17.2458 9.38157 17.0937C9.33474 16.9415 9.28791 16.7863 9.24108 16.6283C9.19425 16.4702 9.1562 16.3327 9.12693 16.2156C9.09766 16.3327 9.05669 16.479 9.00401 16.6546C8.95718 16.8244 8.91035 16.9883 8.86352 17.1463C8.82254 17.2985 8.79035 17.4068 8.76693 17.4712L8.31913 18.9288H9.9523L9.49571 17.4712Z" fill="white"/>
</g>
<defs>
<filter id="filter0_d_1761_2420" x="0" y="0" width="31" height="31.0035" filterUnits="userSpaceOnUse" color-interpolation-filters="sRGB">
<feFlood flood-opacity="0" result="BackgroundImageFix"/>
<feColorMatrix in="SourceAlpha" type="matrix" values="0 0 0 0 0 0 0 0 0 0 0 0 0 0 0 0 0 0 127 0" result="hardAlpha"/>
<feOffset dx="1" dy="1"/>
<feComposite in2="hardAlpha" operator="out"/>
<feColorMatrix type="matrix" values="0 0 0 0 0 0 0 0 0 0 0 0 0 0 0 0 0 0 0.25 0"/>
<feBlend mode="normal" in2="BackgroundImageFix" result="effect1_dropShadow_1761_2420"/>
<feBlend mode="normal" in="SourceGraphic" in2="effect1_dropShadow_1761_2420" result="shape"/>
</filter>
</defs>
</svg>
