<svg xmlns="http://www.w3.org/2000/svg" width="24" height="24" viewBox="0 0 24 24" fill="none">
    <g clip-path="url(#clip0_203_150)">
        <path
            d="M15.5464 14.1407C15.3767 13.9706 15.1462 13.875 14.9059 13.875H14.6498C14.5798 13.875 14.5125 13.8478 14.462 13.7992C14.3588 13.6997 14.3517 13.5373 14.4406 13.4247C15.2617 12.385 15.75 11.0744 15.75 9.65625C15.75 6.29063 13.0219 3.5625 9.65625 3.5625C6.29063 3.5625 3.5625 6.29063 3.5625 9.65625C3.5625 13.0219 6.29063 15.75 9.65625 15.75C11.0744 15.75 12.385 15.2617 13.4247 14.4406C13.5373 14.3517 13.6997 14.3588 13.7992 14.462C13.8478 14.5125 13.875 14.5798 13.875 14.6498V14.9059C13.875 15.1462 13.9706 15.3767 14.1407 15.5464L17.8634 19.2616C18.2496 19.6471 18.8751 19.6468 19.2609 19.2609C19.6468 18.8751 19.6471 18.2496 19.2616 17.8634L15.5464 14.1407ZM9.65625 13.875C7.32187 13.875 5.4375 11.9906 5.4375 9.65625C5.4375 7.32187 7.32187 5.4375 9.65625 5.4375C11.9906 5.4375 13.875 7.32187 13.875 9.65625C13.875 11.9906 11.9906 13.875 9.65625 13.875Z"
            fill="#CF4147" />
    </g>
    <defs>
        <clipPath id="clip0_203_150">
            <rect width="22.5" height="22.5" fill="white" transform="translate(0.75 0.75)" />
        </clipPath>
    </defs>
</svg>