<svg xmlns="http://www.w3.org/2000/svg" width="18" height="19" viewBox="0 0 18 19" fill="none">
    <g clip-path="url(#clip0_352_927)">
        <path
            d="M13.125 12.6002C12.5708 12.6002 12.075 12.8189 11.6958 13.1616L6.49687 10.1356C6.53333 9.96787 6.5625 9.80016 6.5625 9.62516C6.5625 9.45016 6.53333 9.28246 6.49687 9.11475L11.6375 6.11787C12.0312 6.48245 12.549 6.7085 13.125 6.7085C14.3354 6.7085 15.3125 5.73141 15.3125 4.521C15.3125 3.31058 14.3354 2.3335 13.125 2.3335C11.9146 2.3335 10.9375 3.31058 10.9375 4.521C10.9375 4.696 10.9667 4.8637 11.0031 5.03141L5.8625 8.02829C5.46875 7.66371 4.95104 7.43766 4.375 7.43766C3.16458 7.43766 2.1875 8.41475 2.1875 9.62516C2.1875 10.8356 3.16458 11.8127 4.375 11.8127C4.95104 11.8127 5.46875 11.5866 5.8625 11.222L11.0542 14.2554C11.0177 14.4085 10.9958 14.5689 10.9958 14.7293C10.9958 15.9033 11.951 16.8585 13.125 16.8585C14.299 16.8585 15.2542 15.9033 15.2542 14.7293C15.2542 13.5554 14.299 12.6002 13.125 12.6002Z"
            fill="#908C89" />
    </g>
    <defs>
        <clipPath id="clip0_352_927">
            <rect width="17.5" height="17.5" fill="white" transform="translate(0 0.875)" />
        </clipPath>
    </defs>
</svg>