<svg width="18" height="18" viewBox="0 0 18 18" fill="none" xmlns="http://www.w3.org/2000/svg">
    <g clip-path="url(#clip0_565_680)">
        <path
            d="M0.979248 15.5623H3.89591V6.81234H0.979248V15.5623ZM17.0209 7.5415C17.0209 6.73942 16.3647 6.08317 15.5626 6.08317H10.9615L11.6542 2.75088L11.6761 2.51755C11.6761 2.21859 11.5522 1.9415 11.3553 1.74463L10.5824 0.979004L5.78446 5.78421C5.51466 6.04671 5.35425 6.4113 5.35425 6.81234V14.104C5.35425 14.9061 6.0105 15.5623 6.81258 15.5623H13.3751C13.9803 15.5623 14.498 15.1978 14.7167 14.6728L16.9188 9.53213C16.9845 9.36442 17.0209 9.18942 17.0209 8.99984V7.5415Z"
            fill="#908C89" />
    </g>
    <defs>
        <clipPath id="clip0_565_680">
            <rect width="17.5" height="17.5" fill="white" transform="translate(0.25 0.25)" />
        </clipPath>
    </defs>
</svg>