<svg xmlns="http://www.w3.org/2000/svg" width="18" height="18" viewBox="0 0 18 18" fill="">
    <path
        d="M16.125 0H1.875C0.839996 0 0 0.84375 0 1.875V16.125C0 17.16 0.839996 18 1.875 18H16.125C17.16 18 18 17.16 18 16.125V1.875C18 0.84375 17.16 0 16.125 0ZM4.5 15.3764C3.46447 15.3764 2.625 14.537 2.625 13.5014C2.625 12.4659 3.46447 11.6264 4.5 11.6264C5.53553 11.6264 6.375 12.4659 6.375 13.5014C6.375 14.537 5.53553 15.3764 4.5 15.3764ZM9 10.8764C7.96447 10.8764 7.125 10.037 7.125 9.00144C7.125 7.96591 7.96447 7.12644 9 7.12644C10.0355 7.12644 10.875 7.96591 10.875 9.00144C10.875 10.037 10.0355 10.8764 9 10.8764ZM13.5 6.37644C12.4645 6.37644 11.625 5.53697 11.625 4.50144C11.625 3.46591 12.4645 2.62644 13.5 2.62644C14.5355 2.62644 15.375 3.46591 15.375 4.50144C15.375 5.53697 14.5355 6.37644 13.5 6.37644Z"
        fill="" />
</svg>