<svg xmlns="http://www.w3.org/2000/svg" width="29" height="29" viewBox="0 0 29 29" fill="none">
    <path opacity="0.4"
        d="M14.5 29C6.50325 29 0 22.4953 0 14.5C0 6.5047 6.50325 0 14.5 0C22.4953 0 29 6.5047 29 14.5C29 22.4953 22.4953 29 14.5 29Z"
        fill="white" />
    <path
        d="M16.5916 20.6202C16.3147 20.6202 16.0363 20.5143 15.8246 20.3026L10.7684 15.2711C10.564 15.0667 10.4494 14.7897 10.4494 14.4997C10.4494 14.2112 10.564 13.9342 10.7684 13.7298L15.8246 8.69536C16.2494 8.27196 16.9367 8.27196 17.3616 8.69826C17.785 9.12456 17.7835 9.81331 17.3587 10.2367L13.0768 14.4997L17.3587 18.7627C17.7835 19.1861 17.785 19.8734 17.3616 20.2997C17.1499 20.5143 16.87 20.6202 16.5916 20.6202Z"
        fill="white" />
</svg>