<svg xmlns="http://www.w3.org/2000/svg" width="25" height="19" viewBox="0 0 25 19" fill="">
    <path
        d="M4.17143 6.10352e-05C4.17078 6.10352e-05 4.17006 6.10352e-05 4.16941 6.10352e-05C3.94242 6.10352e-05 3.72892 0.0885461 3.56771 0.249355C3.40472 0.411941 3.31494 0.628427 3.31494 0.858892V13.7369C3.31494 14.2092 3.70064 14.5943 4.17482 14.5955C6.17386 14.6003 9.52304 15.0169 11.8335 17.4348V3.95757C11.8335 3.79749 11.7926 3.6471 11.7155 3.52266C9.81913 0.468749 6.17499 0.00474792 4.17143 6.10352e-05Z"
        fill="" />
    <path
        d="M21.6852 13.7369V0.858831C21.6852 0.628366 21.5955 0.41188 21.4325 0.249294C21.2713 0.0884851 21.0576 0 20.8309 0C20.8301 0 20.8294 0 20.8288 0C18.8253 0.00476769 15.1811 0.468769 13.2847 3.52268C13.2076 3.64712 13.1667 3.79751 13.1667 3.95759V17.4347C15.4772 15.0169 18.8264 14.6002 20.8254 14.5954C21.2995 14.5942 21.6852 14.2091 21.6852 13.7369Z"
        fill="" />
    <path
        d="M23.6413 2.96991H23.0186V13.7369C23.0186 14.9426 22.0362 15.9258 20.8286 15.9288C19.133 15.9329 16.3372 16.2644 14.3572 18.1384C17.7817 17.3 21.3917 17.845 23.4491 18.3139C23.706 18.3724 23.9714 18.3119 24.1773 18.1479C24.3823 17.9843 24.5 17.7397 24.5 17.4771V3.82858C24.5001 3.35512 24.1148 2.96991 23.6413 2.96991Z"
        fill="" />
    <path
        d="M1.98138 13.7369V2.96991H1.35867C0.885294 2.96991 0.5 3.35512 0.5 3.82858V17.4769C0.5 17.7395 0.617657 17.984 0.822749 18.1477C1.02841 18.3116 1.29362 18.3723 1.55091 18.3136C3.60829 17.8447 7.21841 17.2997 10.6427 18.1382C8.66277 16.2643 5.86697 15.9328 4.17137 15.9287C2.96385 15.9258 1.98138 14.9426 1.98138 13.7369Z"
        fill="" />
</svg>