<svg width="24" height="24" viewBox="0 0 24 24" fill="" xmlns="http://www.w3.org/2000/svg">
    <g id="Delete" clip-path="url(#clip0_507_492)">
        <path id="Vector"
            d="M6.67857 18C6.67857 19.1 8.21071 20.75 9.23214 20.75H15.2679C16.2893 20.75 17.8214 19.1 17.8214 18V8.75C17.8214 7.64543 16.926 6.75 15.8214 6.75H8.67857C7.574 6.75 6.67857 7.64543 6.67857 8.75V18ZM18.75 4.75C18.75 4.19772 18.3023 3.75 17.75 3.75H16.1823C15.7472 3.75 15.3318 3.56884 15.0357 3.25C14.7397 2.93116 14.3242 2.75 13.8891 2.75H10.6109C10.1758 2.75 9.76035 2.93116 9.46429 3.25C9.16822 3.56884 8.75278 3.75 8.31768 3.75H6.75C6.19772 3.75 5.75 4.19772 5.75 4.75C5.75 5.30228 6.19772 5.75 6.75 5.75H17.75C18.3023 5.75 18.75 5.30228 18.75 4.75Z"
            fill="#CF4147" />
    </g>
    <defs>
        <clipPath id="clip0_507_492">
            <rect width="22.5" height="22.5" fill="white" transform="translate(0.75 0.75)" />
        </clipPath>
    </defs>
</svg>