<svg xmlns="http://www.w3.org/2000/svg" width="22" height="24" viewBox="0 0 22 24" fill="">
    <path
        d="M4.94905 0C3.39773 0 2.13623 1.2615 2.13623 2.81282C2.13623 4.36414 3.39773 5.67252 4.94905 5.67252C6.50037 5.67252 7.76187 4.36414 7.76187 2.81282C7.76187 1.2615 6.50037 0 4.94905 0Z"
        fill="" />
    <path
        d="M20.4196 2.81282C20.4196 1.2615 19.1581 0 17.6068 0C16.0554 0 14.7939 1.2615 14.7939 2.81282C14.7939 4.36414 16.0554 5.67252 17.6068 5.67252C19.1581 5.67252 20.4196 4.36414 20.4196 2.81282Z"
        fill="" />
    <path
        d="M7.48975 21.3343C9.12657 22.7077 9.52951 23.0946 9.9676 23.4671C10.3851 23.8221 10.9063 24 11.4276 24C11.9536 24 12.4796 23.8187 12.8972 23.4575C13.66 22.7971 14.4866 22.0352 15.2301 21.3834C14.831 21.2493 14.4551 21.0353 14.1415 20.7214C13.3066 19.8875 13.0746 18.6241 13.6025 17.5184C12.1686 16.7593 10.3898 16.7613 8.95518 17.5216C9.48042 18.626 9.24893 19.8878 8.41362 20.7221C8.14274 20.9929 7.82752 21.1972 7.48975 21.3343Z"
        fill="" />
    <path
        d="M11.278 14.111C12.0547 14.111 12.6844 13.4813 12.6844 12.7046C12.6844 11.9278 12.0547 11.2982 11.278 11.2982C10.5013 11.2982 9.87158 11.9278 9.87158 12.7046C9.87158 13.4813 10.5013 14.111 11.278 14.111Z"
        fill="" />
    <path
        d="M11.2779 9.01275C10.3152 7.27809 8.65331 5.77623 6.29645 5.77623C3.0551 5.77623 0.611084 8.40364 0.611084 11.8874C0.611084 14.9647 2.70406 17.2211 6.01184 20.0757C6.49874 20.222 7.04442 20.1015 7.41998 19.727C7.99623 19.1522 7.94954 18.2163 7.36297 17.6833C4.83835 15.3895 3.78149 14.1213 3.50311 12.9312C3.41465 12.5531 3.73879 12.2342 4.12715 12.2342C4.51552 12.2342 4.83202 12.5577 4.98466 12.9149C5.32485 13.7107 6.25667 14.7563 8.06552 16.4163C10.0213 15.2687 12.5354 15.2711 14.4905 16.4164C16.2993 14.7564 17.2312 13.7108 17.5714 12.9149C17.724 12.5577 18.0405 12.2342 18.4289 12.2342C18.8173 12.2342 19.1414 12.5531 19.0529 12.9312C18.7745 14.1213 17.7176 15.3895 15.1931 17.6833C14.6098 18.2134 14.5571 19.1494 15.1354 19.7263C15.6096 20.1991 16.3477 20.2524 16.9034 19.8911C20.4206 16.6867 21.945 14.6988 21.945 11.8873C21.945 8.40354 19.5009 5.77618 16.2596 5.77618C13.9019 5.77623 12.2407 7.27809 11.2779 9.01275ZM14.0908 12.7046C14.0908 14.2559 12.8293 15.5174 11.2779 15.5174C9.72663 15.5174 8.46513 14.2559 8.46513 12.7046C8.46513 11.1533 9.72663 9.89176 11.2779 9.89176C12.8293 9.89176 14.0908 11.1533 14.0908 12.7046Z"
        fill="" />
</svg>