<svg xmlns="http://www.w3.org/2000/svg" width="25" height="24" viewBox="0 0 25 24" fill="">
<path d="M3.96667 0C2.77059 0 1.7 1.07059 1.7 2.26667V16H0.9C0.679088 16 0.5 16.1791 0.5 16.4C0.5 16.6209 0.679088 16.8 0.9 16.8H3.3H3.3015H4.1C4.1 14.9619 5.22708 13.3871 6.82784 12.7289C5.91128 12.166 5.3 11.1544 5.3 10C5.3 8.23268 6.73268 6.8 8.5 6.8C10.2673 6.8 11.7 8.23268 11.7 10C11.7 11.1545 11.0886 12.1662 10.172 12.729C10.7684 12.9743 11.2988 13.3467 11.7294 13.8117L14.0342 12.8683C14.4625 12.693 14.9139 12.6628 15.3336 12.7541L18.6443 6.6294C18.9595 6.04636 19.6876 5.8292 20.2706 6.14436C20.8536 6.45948 21.0708 7.1876 20.7556 7.77064L17.0503 14.6254C17.161 15.4886 16.748 16.3516 15.9846 16.8H24.1C24.3209 16.8 24.5 16.6209 24.5 16.4C24.5 16.1791 24.3209 16 24.1 16H23.3V2.26667C23.3 1.07059 22.2294 0 21.0333 0H3.96667Z" fill=""/>
<path d="M19.8902 6.84812C20.0845 6.95316 20.1569 7.19588 20.0519 7.3902L16.2083 14.5007C16.4148 15.1836 16.0717 15.9242 15.398 16.2L12.1 17.55V22.5333C12.1 23.2876 11.3876 24 10.6334 24H6.90002C5.61244 24 4.90002 23.2876 4.90002 22V16.8C4.90002 14.8118 6.51178 13.2 8.50002 13.2C9.73942 13.2 10.832 13.8264 11.4793 14.7786L14.3373 13.6086C14.8035 13.4178 15.313 13.4967 15.6925 13.7728L19.3481 7.0098C19.4532 6.81544 19.6959 6.74308 19.8902 6.84812Z" fill=""/>
<path d="M8.5001 7.59998C7.17462 7.59998 6.1001 8.6745 6.1001 9.99998C6.1001 11.3255 7.17462 12.4 8.5001 12.4C9.82558 12.4 10.9001 11.3255 10.9001 9.99998C10.9001 8.6745 9.82558 7.59998 8.5001 7.59998Z" fill=""/>
</svg>