<svg width="41" height="30" viewBox="0 0 41 30" fill="none" xmlns="http://www.w3.org/2000/svg">
<g id="Group 1136">
<path id="Vector" d="M39.1668 19.4444C38.4025 19.4444 37.7779 18.9526 37.7779 18.348V11.652C37.7779 11.045 38.4025 10.5555 39.1668 10.5555C39.9311 10.5555 40.5557 11.045 40.5557 11.652V18.3464C40.5557 18.9534 39.9311 19.4444 39.1668 19.4444Z" fill="#5DA853"/>
<path id="Vector_2" d="M36.1113 7.2346V22.7654C36.1113 23.384 35.4867 23.8889 34.7224 23.8889C33.9581 23.8889 33.3336 23.3863 33.3336 22.7654V7.2346C33.3336 6.61603 33.9581 6.11111 34.7224 6.11111C35.4867 6.11111 36.1113 6.61371 36.1113 7.2346Z" fill="#5DA853"/>
<path id="Vector_3" d="M31.1113 1.30181V28.6982C31.1113 29.0435 30.9943 29.3746 30.7859 29.6187C30.5775 29.8628 30.2949 30 30.0002 30C29.7055 30 29.4229 29.8628 29.2145 29.6187C29.0062 29.3746 28.8891 29.0435 28.8891 28.6982V1.30181C28.8891 0.956548 29.0062 0.625428 29.2145 0.381291C29.4229 0.137155 29.7055 0 30.0002 0C30.2949 0 30.5775 0.137155 30.7859 0.381291C30.9943 0.625428 31.1113 0.956548 31.1113 1.30181Z" fill="#5DA853"/>
<path id="Vector_4" d="M26.6665 5.74339V23.7011C26.6665 24.4181 26.0658 25 25.2776 25C24.4894 25 23.8887 24.4188 23.8887 23.7011V5.74339C23.8887 5.02641 24.4894 4.44446 25.2776 4.44446C26.0658 4.44446 26.6665 5.02641 26.6665 5.74339Z" fill="#5DA853"/>
<path id="Vector_5" d="M21.6665 12.113V17.887C21.6665 18.4396 21.1668 18.8889 20.5554 18.8889C19.9439 18.8889 19.4443 18.4411 19.4443 17.887V12.113C19.4443 11.5604 19.9439 11.1111 20.5554 11.1111C21.1668 11.1111 21.6665 11.5604 21.6665 12.113Z" fill="#5DA853"/>
<path id="Vector_6" d="M16.6665 6.74867V23.2513C16.6665 23.9107 16.1668 24.4444 15.5554 24.4444C14.9439 24.4444 14.4443 23.9099 14.4443 23.2513V6.74867C14.4443 6.08925 14.9439 5.55554 15.5554 5.55554C16.1668 5.55554 16.6665 6.08925 16.6665 6.74867Z" fill="#5DA853"/>
<path id="Vector_7" d="M12.2222 1.29821V28.7018C12.2222 29.4184 11.6215 30 10.8333 30C10.0451 30 9.44439 29.4192 9.44439 28.7018V1.29821C9.44439 0.581628 10.0451 0 10.8333 0C11.6215 0 12.2222 0.581628 12.2222 1.29821Z" fill="#5DA853"/>
<path id="Vector_8" d="M7.22217 5.74684V23.6976C7.22217 24.043 7.10511 24.3743 6.89673 24.6186C6.68836 24.8628 6.40574 25 6.11106 25C5.81637 25 5.53376 24.8628 5.32538 24.6186C5.11701 24.3743 4.99995 24.043 4.99995 23.6976V5.74684C4.99995 5.40143 5.11701 5.07016 5.32538 4.82592C5.53376 4.58167 5.81637 4.44446 6.11106 4.44446C6.40574 4.44446 6.68836 4.58167 6.89673 4.82592C7.10511 5.07016 7.22217 5.40143 7.22217 5.74684Z" fill="#5DA853"/>
<path id="Vector_9" d="M1.38894 10.5555C2.15325 10.5555 2.77783 11.0673 2.77783 11.6991V18.3009C2.77783 18.9327 2.15325 19.4444 1.38894 19.4444C0.624634 19.4444 5.43594e-05 18.9327 5.43594e-05 18.3009V11.6991C5.43594e-05 11.0681 0.624634 10.5555 1.38894 10.5555Z" fill="#5DA853"/>
</g>
</svg>
